<?xml version="1.0" encoding="UTF-8"?>
<svg id="Layer_2" data-name="Layer 2" xmlns="http://www.w3.org/2000/svg" viewBox="0 0 497.07 402.82">
  <defs>
    <style>
      .cls-1, .cls-2 {
        fill: none;
      }

      .cls-1, .cls-3 {
        stroke-width: 0px;
      }

      .cls-2 {
        stroke: #f15a24;
        stroke-miterlimit: 10;
        stroke-width: 7px;
      }

      .cls-3 {
        fill: #f15a24;
      }
    </style>
  </defs>
  <g id="Layer_1-2" data-name="Layer 1">
    <path class="cls-2" d="M413.57,399.32c-44.18,0-80-35.82-80-80v-70.79c0-46.89-38.15-85.03-85.03-85.03s-85.03,38.15-85.03,85.03v70.79c0,44.18-35.82,80-80,80S3.5,363.51,3.5,319.32v-70.79c0-65.45,25.49-126.98,71.77-173.27S183.08,3.5,248.53,3.5s126.98,25.49,173.27,71.77,71.77,107.81,71.77,173.27v70.79c0,44.18-35.82,80-80,80Z"/>
    <g>
      <path class="cls-1" d="M83.5,319.32v-70.79c0-91.15,73.89-165.03,165.03-165.03h0c91.15,0,165.03,73.89,165.03,165.03v70.79"/>
      <path class="cls-3" d="M97.66,296.23c1.95-1.01,4.17-1.37,6.33-1.02,2.05.28,4,1.03,5.7,2.21,4.32,2.86,7.57,7.08,9.25,11.98.77,2.32,1.02,4.78.74,7.22-.16,1.55-.42,3.08-.64,4.62-.56,2.62-1.37,5.19-2.42,7.66-1.95,4.44-5.23,7.74-9.44,10.19-2.91,1.7-5.97,3.13-9.15,4.26-7.16,2.55-14.39,2.59-21.73.45-5.61-1.66-10.99-4-16.03-6.97-2.84-1.62-5.38-3.7-7.51-6.17-3.34-3.94-5.4-8.37-5.55-13.52-.07-3,.49-5.98,1.63-8.76,1.87-4.65,4.6-8.71,8.56-11.91,1.61-1.35,3.51-2.33,5.55-2.84,6.95-1.67,13.33,4.28,12.24,11.04-.29,1.67-1.03,3.24-2.14,4.52-1.01,1.19-2.16,2.27-3.26,3.39-.79.8-1.68,1.53-2.42,2.38-.58.65-1.05,1.4-1.39,2.2-.75,1.77-.52,3.8.6,5.36.83,1.21,1.89,2.25,3.12,3.05,2.81,1.81,5.85,3.22,9.05,4.19,2.57.85,5.26,1.26,7.96,1.19,4.76-.07,9.35-1.74,13.04-4.75,1.83-1.45,3.19-3.41,3.9-5.63,1-3.23.46-6.17-2.01-8.68-.78-.75-1.61-1.45-2.48-2.09-1.26-.98-2.56-1.92-3.56-3.18-1.05-1.33-1.73-2.79-1.69-4.49.07-2.67,1.38-4.6,3.74-5.87Z"/>
      <path class="cls-3" d="M57.49,251.94c-.44,1.88-1.66,3.47-3.35,4.39-1.69.92-3.7,1.06-5.51.4-1.7-.62-3.22-1.66-4.4-3.04-2.78-3.04-4.25-7.06-4.08-11.17-.04-1.91.47-3.79,1.46-5.43,1.03-1.7,2.77-2.86,4.74-3.15s3.97.3,5.45,1.63c1.08.94,1.96,2.1,2.59,3.39,1.36,2.66,2.4,5.47,3.11,8.37.37,1.52.36,3.1-.01,4.62ZM104.29,235.61c3.11.05,6.84.07,10.57.17,2.12.03,4.23.31,6.28.83,1.65.39,3.13,1.29,4.25,2.57,2.02,2.36,2.12,5.81.24,8.28-1,1.29-2.34,2.27-3.87,2.83-2.27.89-4.67,1.36-7.11,1.41-4.04.11-8.09.08-12.13.11-2.12.01-4.23-.05-6.35.03-3.05.11-6.09.34-9.13.48-2.61.12-5.22.23-7.83.28-1.44.01-2.86-.24-4.21-.75-1.74-.56-3.2-1.77-4.08-3.37-1.28-2.39-1.05-4.69.42-6.87,1.23-1.83,3.05-2.89,5.09-3.61,2.6-.87,5.29-1.42,8.02-1.66,6.39-.68,12.79-.81,19.84-.72Z"/>
      <path class="cls-3" d="M139.43,172.74c1.06,2.16,1.15,4.44.7,6.75-.55,2.88-1.47,4.66-3.73,7.78-1.97,2.85-5.07,5.37-8.87,7.03-2.48,1.06-5.18,1.44-7.86,1.12-3.84-.39-7.39-1.68-10.77-3.45-2.81-1.47-5.55-3.07-8.35-4.58-1.2-.65-2.44-1.24-3.7-1.77-2.26-1.01-4.86-.9-7.02.3-1.09.59-2.16,1.24-3.25,1.82-1.47.85-3.15,1.23-4.84,1.1-2.6-.25-4.38-1.66-5.47-3.96-.56-1.19-.83-2.5-.8-3.81.02-1.43.05-2.86.11-4.29.12-2.78-.92-5.1-2.81-7.07-1.08-1.12-2.18-2.22-3.25-3.34-1.05-1.07-1.88-2.34-2.43-3.73-1.6-4.25,1.02-8.53,5.54-9.05,1.3-.15,2.62-.03,3.89.33,1.44.4,2.88.82,4.27,1.33,2.64,1.02,5.56,1.05,8.22.1,1.28-.5,2.62-.82,3.98-.96,3.72-.28,6.56,1.55,7.76,5.09.25.83.45,1.68.59,2.54.12.61.18,1.23.25,1.85.27,2.83,1.7,5.42,3.96,7.15,3.13,2.47,6.6,4.48,10.31,5.96.35.14.71.25,1.07.34,2.64.7,4.93.11,6.78-1.94.96-1.06,1.89-2.15,2.8-3.26.75-.92,1.65-1.7,2.66-2.32,3.76-2.33,8.35-1.03,10.3,2.94Z"/>
      <path class="cls-3" d="M125.47,102.36c-1.73.84-3.74.9-5.52.17-1.78-.74-3.16-2.2-3.78-4.02-.59-1.71-.74-3.55-.41-5.33.6-4.08,2.8-7.75,6.1-10.21,1.46-1.23,3.24-2.03,5.13-2.29,1.97-.27,3.96.35,5.44,1.69s2.27,3.27,2.18,5.26c-.05,1.44-.39,2.85-1,4.15-1.21,2.73-2.73,5.31-4.54,7.69-.95,1.24-2.18,2.24-3.59,2.9ZM167.65,128.39c1.92,2.44,4.26,5.35,6.53,8.31,1.31,1.66,2.43,3.48,3.32,5.4.73,1.53.97,3.25.69,4.92-.56,3.05-3.17,5.31-6.28,5.41-1.63.04-3.23-.39-4.63-1.22-2.12-1.2-4-2.77-5.58-4.63-2.63-3.07-5.17-6.23-7.73-9.35-1.35-1.63-2.63-3.32-4.03-4.91-2.01-2.29-4.1-4.51-6.13-6.79-1.74-1.95-3.47-3.91-5.16-5.9-.92-1.11-1.62-2.38-2.07-3.74-.66-1.7-.64-3.59.04-5.29,1.05-2.5,2.98-3.77,5.6-4.01,2.19-.2,4.17.54,6.01,1.67,2.31,1.47,4.44,3.21,6.35,5.18,4.55,4.53,8.69,9.42,13.07,14.94Z"/>
      <path class="cls-3" d="M240.67,101.02c.25,1.68-.17,3.4-1.15,4.78-1.01,1.55-2.44,2.64-3.99,3.58-2.09,1.27-4.36,2.13-6.63,2.96-4.56,1.67-9.12,3.3-13.7,4.91-1.29.45-2.63.77-3.68,1.07-2.04.42-3.8.82-5.62.81-1.75.03-3.48-.41-5.01-1.26-3.09-1.75-4.49-4.55-4.82-7.96-.23-2.41.31-4.69,1.23-6.91.98-2.37,2.33-4.53,3.66-6.71,1.65-2.71,3.37-5.37,5-8.09,1.01-1.65,1.8-3.42,2.33-5.28.25-.83.4-1.69.43-2.56.03-1.57-.9-2.38-2.46-2.35-1.79.04-3.4.69-5.02,1.33-2.08.82-4.14,1.69-6.21,2.54-1.22.48-2.52.73-3.83.72-5.11.07-8.75-4.74-6.16-10.06.62-1.22,1.46-2.33,2.47-3.26,1.68-1.57,3.56-2.92,5.58-4.03,3.55-1.92,7.22-3.64,10.97-5.15,2.7-1.12,5.44-2.11,8.18-3.13,1.82-.66,3.72-1.04,5.65-1.14,5.05-.3,9.08,2.65,10.99,6.61,1.27,2.64,1.31,5.41.96,8.22-.39,2.71-1.07,5.38-2.01,7.95-1.08,3.11-2.24,6.2-3.34,9.31-.37,1.05-.7,2.13-.99,3.21-.16.6-.26,1.22-.28,1.84-.04,1.32.58,2.14,1.89,2.38.8.12,1.61.16,2.41.1,1.49-.07,2.98-.24,4.46-.32,1.43-.1,2.87.09,4.22.58,2.45.94,4.02,2.67,4.45,5.3Z"/>
      <path class="cls-3" d="M312.77,86.38c-1.15,3.19-3.38,5.3-6.51,6.52-2.45.93-5.07,1.33-7.69,1.17-2.36-.12-4.71-.47-7.06-.7-3.54-.35-7.07-.54-10.56.39-.79.17-1.53.54-2.15,1.07-.95.78-1.22,2.11-.65,3.2.33.81.87,1.52,1.55,2.07,1.31,1.07,2.81,1.86,4.42,2.35,2.35.63,4.77.95,7.2.96,1.37.02,2.74.02,4.11.1,1.69.08,3.32.68,4.66,1.72,3.11,2.42,3.34,6.32,1.43,9.18-1.22,1.84-3.01,2.95-4.96,3.83-2.63,1.16-5.5,1.68-8.37,1.51-2.63-.15-5.24-.55-7.79-1.2-4.58-.94-8.85-2.99-12.46-5.96-3.2-2.6-5.76-5.9-7.48-9.64-1.98-4.38-2.96-9.15-2.88-13.96.05-2.3.35-4.6.87-6.84,1.08-4.96,2.71-9.71,5.34-14.07,2.15-3.56,4.85-6.62,8.44-8.81,4-2.49,8.68-3.64,13.37-3.28,5.19.36,9.98,1.99,14.49,4.52,3.67,2.07,6.95,4.64,9.44,8.05,2.79,3.81,4.39,8.07,4.2,12.88-.06,1.68-.38,3.35-.95,4.94ZM292.99,71.39c-1.41-.96-3.02-1.59-4.71-1.84-.84-.19-1.39-.31-1.94-.44-1.73-.41-3.27-.03-4.8.88-1.6.94-2.77,2.3-3.91,3.68-.48.59-.67,1.45-.9,2.21-.21.69.08,1.42.7,1.78.29.23.61.43.96.57,1.72.56,3.46,1.04,5.3.51,1.26-.35,2.59-.44,3.88-.25,1.17.16,2.33.37,3.48.63.98.22,2,.12,2.91-.3.54-.19.95-.63,1.1-1.18.65-2.43.14-4.7-2.08-6.26Z"/>
      <path class="cls-3" d="M359.78,153.27c-.94.72-1.93,1.35-2.97,1.91-.66.34-1.37.59-2.1.74-4.52,1.02-8.85-2.41-8.27-7.61.17-1.36.6-2.68,1.25-3.89,1.27-2.44,2.94-4.62,4.53-6.85.79-1.12,1.57-2.24,2.35-3.37,2.54-3.31,4.8-6.82,6.76-10.5.85-1.6,1.44-3.32,1.75-5.1.13-.86.1-1.74-.12-2.59-.25-1.11-.93-2.07-1.88-2.68-.99-.66-2.11-1.09-3.29-1.25-4.5-.64-8.33.75-11.61,3.84-2.35,2.21-4.02,4.9-5.57,7.68-.88,1.58-1.74,3.16-2.69,4.7-1.14,1.94-2.63,3.65-4.39,5.04-1.18.93-2.61,1.5-4.12,1.62-4.01.29-7.22-2.9-7.16-7.1.08-1.93.51-3.84,1.27-5.61.59-1.5,1.23-2.99,1.87-4.47,1.2-2.67,2.17-5.43,2.92-8.26.96-3.8,2.35-7.49,4.15-10.97,1.54-2.99,3.04-5.99,4.57-8.99.98-1.95,2.27-3.73,3.82-5.27.78-.8,1.71-1.46,2.73-1.93,1.63-.76,3.49-.85,5.18-.22,1.69.62,3.05,1.9,3.8,3.53.38.92.68,1.87.9,2.84.18.66.29,1.34.41,2.01.4,2.27,1.83,3.61,3.93,4.3.83.26,1.68.47,2.53.64,2.92.62,5.86,1.12,8.69,2.11,5.38,1.9,9.1,5.47,11.03,10.86.64,1.96.92,4.02.82,6.07-.08,4.18-1.2,8.11-2.79,11.93-1.87,4.51-4.41,8.65-7.11,12.69-1.87,2.8-3.81,5.54-5.78,8.27-1.51,2.21-3.33,4.2-5.4,5.9Z"/>
      <path class="cls-3" d="M399.88,205.27c-1.12-.03-2.24-.03-3.36-.09-2.66-.13-5.18.46-7.67,1.34-1.4.5-2.84.93-4.28,1.3-1.09.27-2.24.26-3.33-.03-3.42-.86-4.82-4.13-2.97-7.12.62-.93,1.36-1.77,2.21-2.51,1.19-1.09,2.49-2.06,3.73-3.11,1.1-.92,2.03-2.03,2.74-3.28,1.39-2.35,1.66-5.19.74-7.76-1.6-4.64-4.55-8.11-9.23-9.9-1.7-.63-3.49-.96-5.31-.97-1.8-.03-3.61.05-5.41.06-1.43,0-2.86.03-4.29-.03-1.62-.06-3.22-.39-4.74-.97-.93-.35-1.8-.87-2.54-1.54-2.14-1.84-2.42-5.06-.62-7.23.82-1.04,1.9-1.79,3.34-2.53.78-.25,1.83-.66,2.91-.94,4.83-1.22,9.63-2.55,14.5-3.56,10.08-2.09,20.26-3.33,30.59-2.63,3.86.21,7.68.87,11.39,1.96,2.58.73,5.01,1.94,7.15,3.56,4.44,3.48,6.52,9.1,4.29,15.03-1.12,2.97-2.96,5.46-5.14,7.71-2.31,2.38-4.93,4.37-7.59,6.33-1,.74-1.99,1.5-2.96,2.27-2.12,1.66-3.76,3.85-4.76,6.35-.26.63-.52,1.27-.79,1.9-.17.4-.34.8-.52,1.2-1.55,3.51-4.23,5.26-8.09,5.17ZM405.8,176.24c.44-.97.51-2.07.19-3.09-.27-1.07-.96-1.98-1.92-2.53-.96-.54-2.1-.67-3.15-.35-1.87.56-2.88,2.76-2.23,4.88.07.24.16.47.19.54.35.79.91,1.47,1.61,1.98,1.96,1.35,4.3.7,5.3-1.44Z"/>
      <path class="cls-3" d="M388.07,255.59c-1.81.02-3.6-.32-5.28-1-2.03-.88-3.57-2.27-4.34-4.38-1.01-2.74-.17-5.72,2.15-7.79,1.82-1.62,4.02-2.46,6.37-2.92,3.13-.62,6.31-.6,9.49-.63,6.72-.06,13.45-.1,20.17-.17,1.56-.02,3.11-.1,4.66-.21,4.16-.28,8.3-.77,12.42-1.42,1.84-.29,3.7-.48,5.56-.62,1.74-.16,3.5.07,5.14.68,1.36.47,2.55,1.36,3.39,2.53,1.61,2.34,1.55,4.81.39,7.27-1.04,2.22-2.88,3.98-5.14,4.94-1.6.71-3.33,1.08-5.08,1.09l-6.54.1v-.08c-2.86.15-5.72.35-8.58.42-2.92.07-5.85-.03-8.77.01-5.17.06-10.32.43-15.44,1.12-3.51.48-7.01,1.1-10.58,1.05Z"/>
      <path class="cls-3" d="M381.77,352.51c-2.1-.83-3.94-2.2-5.33-3.97-3.07-3.87-2.98-8.62.14-12.54,1.09-1.37,2.45-2.5,3.99-3.33,1.69-.93,3.42-1.78,5.17-2.59,2.54-1.18,5.14-2.24,7.65-3.46,1.61-.8,3.18-1.71,4.68-2.69,1.1-.72,2.01-1.7,2.66-2.84.48-.81.73-1.72.74-2.66.09-1.6-.76-3.1-2.17-3.86-1.02-.61-2.18-.96-3.37-1-1.68-.06-3.36-.04-5.04-.09-1.49-.05-2.99-.07-4.47-.26-4.37-.56-7.87-2.6-10.31-6.33-.68-1.05-1.15-2.22-1.37-3.45-.61-2.97.84-5.99,3.54-7.36,1.84-.94,3.92-1.32,5.98-1.09,2.23.21,4.45.49,6.67.82,3.44.57,6.91.93,10.39,1.06,2.87.05,5.73-.12,8.57-.52,4.13-.57,8.26-1.15,12.37-1.83,2.84-.47,5.59-1.3,8-2.94,1.28-.87,2.45-1.91,3.67-2.88.83-.66,1.59-1.4,2.46-2,2.98-2.04,5.96-1.78,8.74.57,1.59,1.41,2.86,3.15,3.73,5.08,1.02,2.14,1.76,4.4,2.19,6.73.86,4.59,1.48,9.22,1.86,13.87.06.74,0,1.49,0,2.24.17,3.12-.4,6.24-1.65,9.1-1.45,3.27-3.75,5.86-6.53,8.03-3.94,3.1-8.69,5-13.69,5.47-3.52.35-6.94-.22-10.32-1.2-1.79-.52-3.6-.99-5.43-1.34-2.92-.56-5.69.07-8.33,1.35-4.01,1.91-7.48,4.79-10.1,8.39-.69.96-1.35,1.94-2.05,2.9-.84,1.24-1.86,2.35-3.03,3.28-3.09,2.33-6.44,2.8-10.04,1.35ZM421.84,315.45c.55,3.6,4.14,6.59,7.81,6.48,2.96-.1,5.28-1.38,6.71-3.99,2.14-3.92.3-7.81-2.73-9.22-3.03-1.41-7.54-.76-9.98,1.51-1.48,1.3-2.16,3.29-1.8,5.23h0Z"/>
    </g>
  </g>
</svg>