<?xml version="1.0" encoding="UTF-8"?>
<svg id="Layer_2" data-name="Layer 2" xmlns="http://www.w3.org/2000/svg" viewBox="0 0 500.28 133.81">
  <defs>
    <style>
      .cls-1 {
        fill: #f25e26;
      }

      .cls-1, .cls-2 {
        stroke-width: 0px;
      }

      .cls-2 {
        fill: #fff;
      }
    </style>
  </defs>
  <g id="Layer_1-2" data-name="Layer 1">
    <g>
      <g>
        <path class="cls-1" d="M50.5,130.62c-1.39,0-2.78-.08-4.17-.24-1.13-.11-2.54-.32-3.95-.53l-1.3-.19c-.44-.06-.87-.14-1.3-.23-3.87-.83-7.68-2.03-11.33-3.58-8.25-3.62-14.72-9.51-19.43-17.6-2.33-3.99-4.31-8.24-5.87-12.61-3.92-11.01-4.19-22.46-.8-34.05,2.17-7.33,5.21-14.32,9.06-20.85,2.59-4.55,6.1-8.82,10.29-12.44,7.79-6.6,16.4-10.03,25.72-10.3h1.07c5.41-.01,10.69,1.04,15.7,3.1,7.9,3.17,14.6,8.04,19.74,14.38,2.99,3.55,5.33,8.11,6.55,12.94,2.16,8.98.18,18.04-5.39,25.11-.59.75-1.22,1.47-1.88,2.16,1.08,1.33,2.05,2.8,2.9,4.39,2.97,5.68,4.02,12.06,3.09,18.18-.7,4.94-2.57,9.71-5.4,13.81-5.04,7.6-12.84,13.62-21.78,16.67-3.85,1.27-7.66,1.89-11.53,1.89Z"/>
        <path class="cls-1" d="M85.07,127.37c-5.5,0-10.75-1.72-15.18-4.99-4.32-3.23-7.52-7.47-9.39-12.36-1.65-4.04-2.64-8.68-2.8-13.42-.13-3.1-.19-6.34-.25-9.58l-.1-5.78c0-1.14-.01-2.29-.07-3.42-.09-1.7-.22-3.41-.34-5.12l-.29-4.11c-.18-2.88-.34-5.76-.44-8.63-.1-3.86.47-7.5,1.68-10.99.12-.36.24-.71.37-1.06-1.5-1.57-2.82-3.33-3.91-5.27-3.6-6.44-4.27-14.11-1.85-21.06,1.61-4.67,4.43-8.92,8.12-12.26,6.47-6.01,14.89-9.32,23.74-9.32h.8c5.18,0,10.29,1.38,14.76,4,6.63,3.89,11.13,10.45,12.38,18.01,1.24,7.56-.91,15.21-5.92,21-.4.47-.81.93-1.24,1.38.97,1.64,1.81,3.41,2.51,5.31,1.54,4.39,2.48,8.62,2.91,12.9.76,6.21,1.12,13.21,1.15,22.34v2.84c.01,2.64.02,5.53-.02,8.41,0,3.37-.42,7.02-1.26,10.57-1.19,5.33-4.08,10.27-8.3,14.07-4.82,4.25-10.84,6.53-17.08,6.53Z"/>
        <path class="cls-1" d="M125.8,132.59c-2.35,0-4.7-.22-7.83-.75-6.69-.96-13.59-4.14-19.53-9.1-4.74-4.04-8.25-9.14-10.29-14.86-2.03-5.39-3-11.48-2.84-18.3.04-2,.14-4.03.24-6.06.03-.57.06-1.15.08-1.72-3.79-2.95-6.72-6.83-8.54-11.31-3.46-9.03-2.01-18.23,3.82-25.6,2.67-3.36,6.09-6.06,9.92-7.85.24-.11.48-.23.73-.35.16-.47.33-.93.5-1.4,1.21-3.53,3.28-7.04,6.03-10.09,5.1-5.49,11.98-8.51,19.06-8.51,8.7,0,16.76,4.42,21.56,11.83,2.1,3.26,3.51,6.81,4.2,10.58.23,1.22.46,2.48.65,3.75,1.37,1.48,2.71,3.2,3.88,5.04.11.17.21.33.31.5,6.31,10.65,4.7,23.66-4.02,32.38-.14.14-.91.86-1.16,1.08.44.25.88.5,1.32.77,6.29,3.89,10.7,10.3,12.03,17.54,1.33,7.23-.52,14.77-5.06,20.7-2.68,3.5-7.6,8.15-15.81,10.43-3.19.89-6.12,1.3-9.23,1.3Z"/>
        <path class="cls-1" d="M145.63,127.37c-5.5,0-10.75-1.72-15.18-4.99-4.32-3.23-7.52-7.47-9.39-12.36-1.65-4.04-2.64-8.68-2.8-13.42-.13-3.1-.19-6.34-.25-9.58l-.1-5.78c0-1.14-.01-2.29-.07-3.42-.09-1.7-.22-3.41-.34-5.12l-.29-4.11c-.18-2.88-.34-5.76-.44-8.63-.1-3.86.47-7.5,1.68-10.99.12-.36.24-.71.37-1.06-1.5-1.57-2.82-3.33-3.91-5.27-3.6-6.44-4.27-14.11-1.85-21.06,1.61-4.67,4.43-8.92,8.12-12.26,6.47-6.01,14.89-9.32,23.74-9.32h.8c5.18,0,10.29,1.38,14.76,4,6.63,3.89,11.13,10.45,12.38,18.01,1.24,7.56-.91,15.21-5.92,21-.4.47-.81.93-1.25,1.38.97,1.64,1.81,3.42,2.52,5.32,1.53,4.36,2.47,8.6,2.91,12.88.76,6.21,1.12,13.21,1.15,22.34v2.84c.01,2.64.02,5.53-.02,8.41,0,3.37-.42,7.02-1.26,10.57-1.19,5.33-4.08,10.27-8.3,14.07-4.82,4.25-10.84,6.53-17.08,6.53Z"/>
        <path class="cls-1" d="M171.05,125.52l.32-18.78-.73,18.77c-2.54-.04-5.7-.09-9.34-.93-4.62-.97-9.26-3.31-13.06-6.69-7.23-6.57-10.44-15.58-9.19-25.5.57-4.55,2.19-9,4.81-13.23-3.54-2.9-6.32-6.75-7.93-11.24-3.03-8.46-1.36-17.85,4.47-25.13,2.55-3.08,5.35-5.43,8.53-7.26,3.31-1.94,6.97-3.5,10.78-4.58,4.74-1.34,9.57-2.4,14.38-3.18,2.52-.44,5.31-.82,8.08-1.19l1.36-.18c1.77-.22,3.42-.33,5.06-.33,2.2,0,4.41.19,6.58.56,12.11,1.97,21.87,11.17,24.71,23.43,1.42,6.1.92,12.37-1.53,19.14-.98,2.57-2.07,4.97-3.3,7.25,5.91,5.37,8.87,12.62,8.4,20.57-.52,6.79-3.41,12.76-8.16,17.16-3.15,2.99-6.98,5.21-11.69,6.8-3.96,1.32-7.56,1.86-10.92,2.3-5.07.66-10.13,1.28-15.19,1.88-1.48.17-2.95.25-4.27.31,0,0-1.51.07-1.87.07-.11,0-.21,0-.32,0Z"/>
        <path class="cls-1" d="M231.94,126.92c-7.55,0-15.11-1.8-21.85-5.2-6.25-3.1-11.88-7.75-16.2-13.38-4.72-6.26-7.99-13.5-9.55-21.04-.75-3.73-1.1-7.43-1.06-11.1-.06-7.56.97-14.58,3.14-21.13,2.43-7.31,6.23-13.5,11.29-18.39,6.22-6.13,14.24-10.12,23.05-11.42,2.46-.38,5.08-.58,7.68-.58,5.28,0,10.69.82,16.1,2.44,7.25,2.18,13.24,5.39,18.32,9.82,7.09,6.18,11.68,14.07,13.28,22.81.66,3.53.78,7.22.33,10.87-.71,5.75-2.99,10.99-6.58,15.33,2.73,6.06,3.08,13.16.49,19.92-1.99,5.18-5.38,9.51-10.37,13.27-4.89,3.62-10.5,5.99-16.35,6.96-3.29.55-6.68.83-10.04.83h-1.68Z"/>
        <path class="cls-1" d="M310.46,126.45c-6.61,0-12.82-2.53-17.57-6.98-4.51,3.42-9.89,5.25-15.47,5.25-8.11,0-15.66-3.76-20.7-10.33-.11-.14-.21-.28-.31-.42-2.46-3.4-4.28-7.17-5.4-11.22-.52-1.73-.99-3.47-1.45-5.21-.54-2.15-1.19-4.06-1.99-5.89-2.16-4.82-3.83-10.1-4.87-15.5-.37-1.92-2.03-10.15-2.03-10.15-.83-4.08-1-8.38-.48-12.64.33-3.13,1.3-6.42,2.85-9.49,3.03-6.07,8.53-10.79,15.04-12.9,2.56-.83,5.23-1.25,7.94-1.25,4.1,0,8.19,1,11.84,2.88.2.1.62.34.65.35,1.71-.8,3.61-1.61,5.67-2.31,4.1-1.4,8.28-2.11,12.4-2.11,6.89,0,13.46,1.93,19.54,5.74.14.09.29.18.43.28,3.61,2.4,6.73,5.4,9.27,8.91,3.67,4.9,6.39,10.64,8.33,17.54,1.88,6.73,2.57,13.1,2.99,18.45.29,3.69.48,7.38.64,11.07.28,4.08-.06,8.64-1.03,13.09-.05.22-.1.43-.15.64-.56,2.17-1.3,4.31-2.21,6.37-1.14,2.49-2.48,4.6-4.1,6.51-4.69,5.8-12.01,9.32-19.82,9.32Z"/>
        <path class="cls-1" d="M342.22,128.71c-9.53,0-18.19-5.63-22.06-14.34-2.06-4.35-2.38-8.72-2.42-11.59-.01-1.01.05-2.02.2-3.02.21-1.63.4-3,.69-4.34l.82-3.85c.85-4.03,1.7-8.06,2.75-12.04,3.57-13.63,7.89-24.51,13.58-34.26,2.55-4.51,5.78-8.93,9.48-12.93,3.33-3.67,7.41-6.76,12-9.05,4.77-2.28,9.7-3.41,14.54-3.41,8.91,0,17.24,3.67,23.46,10.34,3.79,4.07,6.66,8.93,8.76,14.87,1.64,4.65,2.49,9.13,3.16,12.96.14.82.3,1.64.47,2.46l2.2,2.56c7.4,8.89,8.62,20.35,3.22,30.59l-.39.75c-.45.87-.9,1.73-1.38,2.59,0,0,0,0,0,0,.03,0-.05.33-.12.95-.25,2.1-.61,4.16-1.04,6.21-.98,4.4-2.98,8.35-5.84,11.6-4.47,5.22-11.08,8.32-17.98,8.32-8.06,0-15.48-4.16-19.9-11.13,0,.02-.02.03-.03.05-1.75,3.2-4.04,6.14-6.79,8.67-2.39,2.23-5.21,4.02-8.32,5.27-2.67,1.13-5.84,1.78-9.09,1.78Z"/>
        <path class="cls-1" d="M406.01,129.83c-7.56,0-14.81-3.36-19.89-9.23-3.68-4.26-6.1-9.5-7.2-15.58-.86-4.76-.84-9.15-.81-12.67l.14-21.44c0-1.26-.05-2.5-.11-3.73-.19-3.59-.57-7.37-1.12-11.24-.34-2.41-.56-4.84-.7-7.27-.33-4.28.36-8.97,2.04-13.27,1.7-4.66,5-8.96,9.41-12.04,4.63-3.09,9.57-4.61,14.61-4.61,4.05,0,8.06.96,11.91,2.84,6.47,3.15,11.51,8.58,14.2,15.26,1.58,3.72,2.43,7.99,2.41,12.37v6.67c0,.34,0,.67-.03,1.01l.03.82c.1,2.29.19,4.59.21,6.89.02,1.83-.02,3.67-.06,5.51-.03,1.24-.06,2.48-.06,3.73-.02,4.63.25,9.24.79,13.76l.21,1.63c.45,3.48.95,7.41.84,11.87-.04,4.32-.92,8.52-2.62,12.49-3.26,7.25-8.78,12.38-15.68,14.79-2.74.96-5.61,1.45-8.51,1.45Z"/>
        <path class="cls-1" d="M470.21,133.81c-6.59,0-12.93-2.27-18.32-6.55-1.05-.84-2.04-1.73-2.96-2.68-1.57,1.54-3.3,2.93-5.19,4.17-3.21,2.09-6.73,3.5-10.48,4.18-1.28.27-3.03.45-4.77.45-9.74,0-18.53-5.39-22.94-14.07-2.65-5.16-3.72-11.01-3.05-16.84.2-2.24.54-4.89.93-7.52.51-3.1.8-5.93.91-8.73.02-1.57-.1-3.56-.37-5.52-.57-4.15-1.15-8.25-1.83-12.33-.09-.55-.17-.88-.22-1.05-.3-.4-.62-.77-.93-1.14l-1.35-1.63c-.91-1.06-1.79-2.14-2.57-3.29-6.8-9.96-6.11-22.41,1.75-31.73.11-.13.22-.26.34-.39,3.23-3.62,7.11-6.47,11.53-8.47,3.32-1.6,7.26-2.88,11.32-3.62,5.27-.99,10.76-1.73,16.22-2.17.74-.06,1.55-.09,2.36-.09l1.16.02c.47-.02.94-.03,1.42-.03,5.48,0,10.8,1.11,15.82,3.3,6.04,2.67,11.26,6.84,15.61,12.42,5.4,6.87,8.72,15.17,9.54,23.95.55,5.5-.07,11.3-1.89,17.64-.18.64-.36,1.28-.53,1.92.61.95,1.35,1.73,2.21,2.35,0,0,2.26,1.59,2.82,2,2.69,1.87,5.1,4.11,7.15,6.67.13.16.26.32.38.49,6.36,8.45,7.76,18.9,3.82,28.69-2.04,5.15-5.47,9.76-9.89,13.25-5.24,4.16-11.47,6.37-17.98,6.37Z"/>
      </g>
      <g>
        <path class="cls-2" d="M69.57,88.95c1.05,2.01,1.42,4.31,1.06,6.55-.29,2.12-1.07,4.14-2.28,5.9-2.96,4.47-7.32,7.83-12.39,9.57-2.4.79-4.95,1.05-7.46.76-1.6-.16-3.19-.44-4.78-.66-2.71-.58-5.37-1.42-7.92-2.5-4.6-2.02-8-5.41-10.54-9.77-1.76-3.01-3.23-6.18-4.4-9.46-2.64-7.41-2.68-14.89-.47-22.48,1.71-5.8,4.13-11.37,7.21-16.58,1.67-2.93,3.83-5.56,6.39-7.77,4.08-3.45,8.66-5.59,13.99-5.74,3.1-.07,6.19.5,9.06,1.69,4.81,1.93,9,4.76,12.32,8.85,1.4,1.67,2.4,3.63,2.94,5.74,1.73,7.19-4.43,13.78-11.41,12.66-1.73-.3-3.35-1.06-4.68-2.21-1.24-1.04-2.35-2.23-3.5-3.37-.83-.82-1.58-1.74-2.46-2.5-.68-.6-1.44-1.09-2.28-1.44-1.83-.78-3.93-.54-5.54.62-1.26.86-2.33,1.95-3.15,3.23-1.87,2.9-3.33,6.05-4.33,9.36-.88,2.65-1.3,5.44-1.24,8.24.07,4.92,1.8,9.68,4.92,13.49,1.49,1.9,3.52,3.3,5.82,4.04,3.34,1.04,6.39.48,8.98-2.08.77-.81,1.5-1.66,2.17-2.57,1.02-1.3,1.98-2.65,3.29-3.68,1.37-1.08,2.89-1.79,4.65-1.74,2.76.07,4.76,1.43,6.07,3.87Z"/>
        <path class="cls-2" d="M75.34,36.86c-1.95-.42-3.62-1.66-4.59-3.4-.97-1.74-1.15-3.81-.5-5.69.61-1.77,1.67-3.35,3.07-4.59,3.1-2.93,7.23-4.5,11.49-4.39,1.98-.07,3.93.42,5.64,1.42,1.78,1.04,3,2.82,3.33,4.85.33,2.03-.25,4.11-1.6,5.67-.96,1.13-2.14,2.06-3.47,2.73-2.73,1.45-5.62,2.57-8.61,3.34-1.57.41-3.2.42-4.78.06ZM92.95,85c0,3.21.04,7.08-.02,10.94,0,2.19-.25,4.38-.76,6.51-.38,1.71-1.29,3.26-2.59,4.43-2.41,2.12-5.97,2.28-8.56.38-1.35-1.01-2.38-2.38-2.98-3.96-.95-2.33-1.48-4.81-1.57-7.33-.17-4.18-.21-8.36-.3-12.55-.05-2.19-.02-4.38-.13-6.57-.16-3.15-.44-6.29-.64-9.44-.17-2.7-.32-5.4-.41-8.1-.04-1.49.2-2.97.71-4.36.56-1.81,1.78-3.33,3.42-4.27,2.45-1.36,4.83-1.16,7.12.33,1.91,1.25,3.04,3.11,3.82,5.21.94,2.68,1.55,5.45,1.84,8.27.8,6.59,1.03,13.22,1.05,20.5Z"/>
        <path class="cls-2" d="M135.95,109.44c-1.51,1.97-3.59,3.11-5.93,3.76-2.92.81-4.99.78-8.92.12-3.55-.51-7.3-2.23-10.59-4.98-2.12-1.81-3.72-4.14-4.65-6.76-1.41-3.74-1.85-7.62-1.76-11.57.07-3.28.29-6.56.4-9.84.05-1.41.03-2.83-.06-4.25-.1-2.56-1.4-4.92-3.51-6.36-1.05-.74-2.14-1.43-3.18-2.18-1.46-.97-2.59-2.35-3.25-3.98-.97-2.52-.48-4.82,1.16-6.88.85-1.07,1.93-1.92,3.16-2.5,1.34-.64,2.67-1.27,4.03-1.88,2.64-1.17,4.3-3.2,5.26-5.86.54-1.51,1.05-3.04,1.6-4.55.5-1.46,1.3-2.81,2.34-3.96,3.2-3.44,8.38-2.98,10.93.97.74,1.14,1.24,2.42,1.48,3.75.29,1.52.57,3.04.73,4.57.27,2.91,1.58,5.63,3.69,7.66,1.05.96,1.96,2.05,2.72,3.25,1.97,3.32,1.59,6.79-1.14,9.52-.66.62-1.35,1.19-2.09,1.71-.51.39-1.06.74-1.6,1.08-2.5,1.55-4.24,4.07-4.81,6.96-.85,4.04-1.12,8.18-.78,12.29.03.39.09.77.17,1.15.57,2.77,2.16,4.62,4.91,5.39,1.43.4,2.86.77,4.3,1.09,1.2.27,2.34.74,3.37,1.39,3.89,2.41,4.79,7.27,2.01,10.89Z"/>
        <path class="cls-2" d="M135.9,36.86c-1.95-.42-3.62-1.66-4.59-3.4-.97-1.74-1.15-3.81-.5-5.69.61-1.77,1.67-3.35,3.07-4.59,3.1-2.93,7.23-4.5,11.49-4.39,1.98-.07,3.93.42,5.64,1.42,1.78,1.04,3,2.82,3.33,4.85.33,2.03-.25,4.11-1.6,5.67-.96,1.13-2.14,2.06-3.47,2.73-2.73,1.45-5.62,2.57-8.61,3.34-1.57.41-3.2.42-4.78.06ZM153.51,85c0,3.21.04,7.08-.02,10.94,0,2.19-.25,4.38-.76,6.51-.38,1.71-1.29,3.26-2.59,4.43-2.41,2.12-5.97,2.28-8.56.38-1.35-1.01-2.38-2.38-2.98-3.96-.95-2.33-1.48-4.81-1.57-7.33-.17-4.18-.21-8.36-.3-12.55-.05-2.19-.02-4.38-.13-6.57-.16-3.15-.44-6.29-.64-9.44-.17-2.7-.32-5.4-.41-8.1-.04-1.49.2-2.97.71-4.36.56-1.81,1.78-3.33,3.42-4.27,2.45-1.36,4.83-1.16,7.12.33,1.91,1.25,3.04,3.11,3.82,5.21.94,2.68,1.55,5.45,1.84,8.27.8,6.59,1.03,13.22,1.05,20.5Z"/>
        <path class="cls-2" d="M204.72,95.89c-.14,1.76-.94,3.39-2.25,4.57-1.37,1.33-3.06,2.11-4.84,2.71-2.4.8-4.88,1.16-7.37,1.48-4.98.65-9.96,1.26-14.94,1.85-1.41.16-2.82.18-3.95.25-2.15-.04-4.02-.04-5.86-.46-1.77-.37-3.42-1.2-4.77-2.41-2.72-2.47-3.5-5.61-3.05-9.13.31-2.48,1.38-4.67,2.81-6.7,1.53-2.17,3.39-4.04,5.22-5.94,2.28-2.35,4.62-4.65,6.89-7.03,1.39-1.43,2.59-3.05,3.55-4.8.44-.78.78-1.62,1.02-2.49.39-1.58-.37-2.61-1.95-2.93-1.81-.37-3.59-.07-5.37.2-2.29.35-4.56.76-6.84,1.16-1.34.21-2.7.16-4.03-.14-5.17-1.09-7.76-6.77-3.93-11.55.91-1.09,2-2.02,3.23-2.73,2.06-1.2,4.25-2.14,6.55-2.79,4.03-1.13,8.11-2.04,12.24-2.7,2.98-.52,5.98-.9,8.97-1.3,1.98-.25,3.99-.21,5.96.13,5.16.84,8.56,4.74,9.59,9.16.69,2.95.1,5.75-.9,8.51-1.01,2.65-2.3,5.18-3.84,7.56-1.8,2.9-3.67,5.75-5.48,8.64-.62.98-1.19,1.99-1.73,3.01-.3.57-.54,1.17-.7,1.79-.34,1.32.1,2.29,1.36,2.83.78.3,1.59.52,2.41.65,1.52.27,3.06.43,4.58.69,1.47.22,2.87.75,4.13,1.55,2.26,1.51,3.45,3.6,3.29,6.36Z"/>
        <path class="cls-2" d="M257.85,68.32c-.43,3.48-2.21,6.11-5.09,8.06-2.26,1.5-4.82,2.49-7.5,2.92-2.41.41-4.85.6-7.28.9-3.65.45-7.26,1.06-10.57,2.79-.76.35-1.42.89-1.92,1.57-.78,1-.75,2.41.07,3.38.52.74,1.22,1.34,2.04,1.74,1.56.78,3.26,1.24,4.99,1.36,2.51.1,5.03-.12,7.48-.66,1.38-.29,2.77-.61,4.17-.83,1.73-.3,3.5-.06,5.09.68,3.68,1.73,4.8,5.61,3.53,8.94-.82,2.13-2.37,3.66-4.14,4.99-2.39,1.77-5.17,2.95-8.1,3.43-2.69.45-5.41.63-8.14.56-4.83.09-9.61-1-13.93-3.18-3.82-1.9-7.15-4.64-9.74-8.03-2.99-3.97-5.07-8.56-6.07-13.43-.47-2.34-.69-4.72-.67-7.1-.04-5.24.53-10.41,2.19-15.41,1.36-4.08,3.39-7.79,6.52-10.81,3.47-3.42,7.93-5.64,12.75-6.35,5.32-.82,10.52-.26,15.65,1.27,4.18,1.25,8.06,3.1,11.36,5.98,3.68,3.21,6.26,7.14,7.16,12.04.32,1.71.38,3.47.16,5.2ZM234.48,57.7c-1.65-.64-3.41-.91-5.18-.79-.89,0-1.47,0-2.05,0-1.84-.03-3.31.72-4.64,1.98-1.4,1.32-2.28,2.95-3.11,4.6-.35.7-.35,1.61-.4,2.44-.05.74.41,1.42,1.11,1.64.35.17.72.29,1.09.36,1.87.17,3.72.26,5.46-.69,1.2-.64,2.51-1.03,3.86-1.13,1.21-.11,2.44-.15,3.66-.15,1.04,0,2.05-.33,2.87-.96.5-.32.81-.86.84-1.44.11-2.6-.93-4.77-3.52-5.85Z"/>
        <path class="cls-2" d="M318.4,99.59c-.3,1.18-.7,2.34-1.2,3.45-.32.7-.74,1.35-1.24,1.94-3.02,3.73-8.73,3.71-11.59-.89-.73-1.21-1.23-2.56-1.47-3.96-.53-2.8-.57-5.63-.71-8.47-.07-1.41-.17-2.82-.25-4.24-.05-4.31-.46-8.62-1.23-12.86-.33-1.84-.96-3.62-1.84-5.27-.44-.79-1.04-1.48-1.75-2.03-.91-.74-2.08-1.09-3.25-.97-1.22.09-2.41.47-3.47,1.09-4.06,2.36-6.29,5.94-6.98,10.55-.5,3.3-.13,6.55.39,9.8.29,1.84.61,3.69.82,5.54.32,2.3.2,4.65-.34,6.91-.36,1.52-1.16,2.89-2.31,3.95-3.08,2.8-7.72,2.27-10.37-1.19-1.17-1.62-2.04-3.44-2.56-5.38-.48-1.6-.92-3.22-1.35-4.83-.74-2.94-1.71-5.81-2.92-8.58-1.66-3.7-2.89-7.59-3.65-11.57-.66-3.42-1.37-6.82-2.04-10.23-.45-2.21-.54-4.49-.27-6.73.12-1.16.45-2.28.98-3.32.83-1.66,2.3-2.92,4.07-3.5,1.77-.58,3.7-.41,5.35.44.9.51,1.75,1.09,2.55,1.74.57.42,1.09.9,1.62,1.37,1.78,1.59,3.8,1.76,5.95.98.84-.32,1.66-.69,2.47-1.1,2.76-1.36,5.47-2.84,8.41-3.84,5.59-1.9,10.9-1.38,15.92,1.76,1.77,1.18,3.32,2.68,4.55,4.41,2.61,3.44,4.22,7.35,5.37,11.48,1.36,4.86,1.95,9.85,2.35,14.86.27,3.47.45,6.94.6,10.42.19,2.77-.02,5.54-.61,8.25Z"/>
        <path class="cls-2" d="M396.46,84.92c-.54,1.03-1.06,2.06-1.63,3.07-1.34,2.4-1.96,5.01-2.29,7.72-.19,1.53-.45,3.06-.77,4.56-.25,1.14-.79,2.19-1.56,3.07-2.37,2.77-6.05,2.57-7.96-.52-.58-1-1.02-2.08-1.31-3.2-.46-1.6-.76-3.26-1.16-4.88-.35-1.44-.95-2.81-1.77-4.05-1.54-2.37-4.05-3.92-6.85-4.26-5.03-.66-9.6.48-13.42,4-1.37,1.28-2.49,2.8-3.34,4.47-.86,1.65-1.62,3.36-2.43,5.04-.65,1.33-1.29,2.67-2,3.96-.8,1.47-1.84,2.81-3.08,3.94-.76.7-1.63,1.26-2.59,1.65-2.69,1.14-5.8-.08-6.98-2.76-.59-1.24-.78-2.58-.81-4.26.12-.84.23-2,.47-3.13,1.09-5.03,2.07-10.09,3.37-15.07,2.7-10.3,6.23-20.3,11.63-29.55,1.97-3.48,4.34-6.71,7.05-9.65,1.87-2.06,4.1-3.75,6.58-4.99,5.27-2.51,11.43-1.86,15.91,2.94,2.24,2.4,3.7,5.25,4.78,8.31,1.14,3.23,1.78,6.58,2.37,9.94.22,1.27.47,2.53.74,3.79.57,2.73,1.84,5.25,3.7,7.33.47.53.93,1.07,1.4,1.6.3.34.59.69.87,1.03,2.54,3.05,2.93,6.34,1.07,9.87ZM372.28,66.09c-.7-.86-1.68-1.42-2.77-1.6-1.11-.25-2.28-.02-3.22.62s-1.58,1.63-1.77,2.76c-.34,1.99,1.24,3.94,3.5,4.31.25.04.51.06.59.07.9.04,1.78-.16,2.58-.58,2.15-1.2,2.63-3.66,1.1-5.57Z"/>
        <path class="cls-2" d="M414.05,100.79c0,1.87-.39,3.72-1.12,5.45-.94,2.09-2.41,3.66-4.6,4.42-2.85,1-5.92.08-8.02-2.34-1.65-1.91-2.48-4.19-2.92-6.64-.59-3.25-.53-6.54-.51-9.82.04-6.95.11-13.91.14-20.87,0-1.61-.06-3.22-.14-4.83-.23-4.31-.67-8.6-1.28-12.87-.27-1.91-.44-3.84-.55-5.77-.14-1.81.13-3.62.79-5.31.51-1.4,1.44-2.61,2.67-3.47,2.45-1.63,5-1.53,7.53-.29,2.28,1.11,4.08,3.04,5.02,5.4.71,1.67,1.06,3.46,1.05,5.27v6.77h-.08c.11,2.96.28,5.92.3,8.88.03,3.02-.12,6.05-.12,9.07-.02,5.35.29,10.68.92,15.99.44,3.64,1.02,7.27.92,10.96Z"/>
        <path class="cls-2" d="M480.66,107.18c-.86,2.17-2.28,4.07-4.11,5.52-4,3.17-8.92,3.08-12.97-.15-1.41-1.13-2.59-2.54-3.45-4.13-.96-1.75-1.84-3.54-2.68-5.34-1.22-2.63-2.32-5.31-3.58-7.92-.83-1.67-1.76-3.29-2.79-4.85-.75-1.14-1.75-2.08-2.94-2.75-.83-.49-1.78-.76-2.75-.76-1.65-.09-3.21.78-3.99,2.24-.63,1.05-.99,2.25-1.03,3.48-.06,1.74-.04,3.48-.09,5.21-.05,1.54-.07,3.09-.27,4.62-.58,4.52-2.68,8.14-6.54,10.66-1.08.71-2.29,1.19-3.56,1.42-3.07.63-6.19-.86-7.61-3.66-.98-1.91-1.37-4.06-1.13-6.19.21-2.31.51-4.61.85-6.9.59-3.56.96-7.15,1.1-10.75.05-2.96-.13-5.93-.54-8.86-.59-4.27-1.19-8.54-1.9-12.8-.49-2.94-1.34-5.79-3.04-8.28-.9-1.33-1.97-2.54-2.98-3.79-.68-.86-1.45-1.65-2.07-2.55-2.11-3.09-1.84-6.17.58-9.04,1.46-1.64,3.26-2.96,5.26-3.86,2.21-1.06,4.55-1.82,6.96-2.26,4.74-.89,9.54-1.54,14.35-1.92.77-.06,1.54,0,2.32,0,3.23-.17,6.45.41,9.41,1.7,3.38,1.5,6.06,3.87,8.31,6.76,3.21,4.08,5.17,8.99,5.66,14.16.36,3.64-.23,7.18-1.24,10.68-.53,1.85-1.02,3.72-1.39,5.61-.58,3.02.08,5.89,1.4,8.61,1.97,4.15,4.96,7.74,8.68,10.44.99.72,2.01,1.4,2.99,2.12,1.28.87,2.43,1.93,3.4,3.13,2.41,3.2,2.9,6.66,1.4,10.38ZM442.33,65.74c3.72-.56,6.82-4.28,6.7-8.08-.11-3.06-1.43-5.46-4.13-6.94-4.06-2.22-8.08-.31-9.54,2.83-1.46,3.14-.79,7.8,1.56,10.33,1.35,1.53,3.4,2.24,5.41,1.86h0Z"/>
      </g>
    </g>
  </g>
</svg>