<?xml version="1.0" encoding="UTF-8"?>
<svg id="Layer_2" data-name="Layer 2" xmlns="http://www.w3.org/2000/svg" viewBox="0 0 530.61 479.85">
  <defs>
    <style>
      .cls-1 {
        fill: #f8c39c;
      }

      .cls-1, .cls-2 {
        stroke-width: 0px;
      }

      .cls-2 {
        fill: #fefefe;
      }
    </style>
  </defs>
  <g id="Layer_1-2" data-name="Layer 1">
    <g>
      <circle class="cls-2" cx="240.45" cy="236.92" r="223.06"/>
      <path class="cls-1" d="M487.01,237.51c-.54,7.83-.24,15.41-2.08,23.29-1.94,8.3-6.27,7.16-11.3,5.4-17.5-6.12-21.59-13.87-21.54-32.74.1-35.75-7.76-69.11-25.7-101.02-19.31-34.35-48.18-58.18-80.02-77.79-22.57-13.89-50.03-19.91-76.99-21.3-17.45-.9-34.74-3.28-52.54-2.6-39.4,1.51-72.93,15.48-103.99,38.51-34.64,25.69-54.36,61.03-70.43,99.99-12.83,31.12-11.1,62.81-9.43,94.68,1.37,26.02,11.34,49.97,22.88,73.1,14.09,28.24,35.05,50.53,59.95,69.58,22.27,17.03,47.31,28.09,74.33,34.09,41.41,9.21,83.22,14.19,124.49-.55,20.11-7.18,37.52-19.51,53.85-33.2,3.67-3.08,6.51-7.5,10.61-9.63,5.46-2.83,11.66-7.85,17.68-.06,5.19,6.71,6.69,12.64,1.48,20.75-7.98,12.42-22.22,16.45-31.87,26.14-17.35,17.42-39.12,26.08-62,31.71-23.71,5.83-48.18,3.81-72.39,2.81-36.77-1.52-70.18-14.57-103.16-29.51-41.96-19.01-73.19-50.27-96.92-88.37-15.89-25.51-26.52-53.81-29.24-84.89-1.44-16.46-3.33-32.78-2.44-49.26,1.61-30.02,7.77-59.31,18.89-87.1,12.02-30.03,29.34-57.16,51.84-80.67C99.76,28.77,135.37,12.13,176.27,6.18c15-2.18,29.97-5.46,45.04-6.03,16.49-.63,33.1.98,49.61,2.17,14.59,1.05,29.02,3.69,43.6,5.13,19.14,1.89,37.59,8.52,53.45,20.91,13.87,10.84,30.57,18.78,42.29,31.46,13.47,14.57,30.33,26.33,39.3,45.33,5.17,10.96,13.21,20.42,17.88,32.1,12.92,32.32,16.2,66.25,19.57,100.27Z"/>
      <path class="cls-1" d="M101.9,310.37c-.64-12.53.64-23.24,3-33.68,1.41-6.28.6-10.4-4.57-14.49-13.11-10.35-27.54-18.59-41.78-27.13-5.85-3.5-12.01-16.16-8.99-22.08,3.69-7.24,10.29-4.22,16.48-3.61,15.16,1.49,24.97,12.46,36.19,20.36,8.51,6,18.02,10.81,25.51,18.59,2.59,2.68,8.69,2.82,13.42.47,65.34-32.5,131.36-33.77,197.61-3.28,6.91,3.18,7.8-.18,12.01-3.57,19.35-15.56,39.01-30.93,61.81-41.35,6.22-2.84,12.49,2.37,14.59,5.74,2.79,4.47,2.1,10.9-3.96,16.34-14.77,13.26-33.28,20.47-49.04,32.25-10.8,8.08-10.71,15.2-8.4,25.71,7.48,34.04,5.48,67.84-4.67,101.01-3.07,10.05-12.75,15.15-20.85,20.8-29.37,20.49-63.04,23.72-97.53,24.18-23.65.32-46.2-4.78-68.73-10.94-47.97-13.12-62.45-32.44-70.38-82.76-1.25-7.93-3.02-16.08-1.7-22.58ZM341.16,333.03c.34-14.21-1.11-31.21-4.45-48.07-1.24-6.26-4.14-10.53-9.76-13.87-35.97-21.43-74.81-23.01-114.74-17.04-23.18,3.47-44.81,11.95-66.37,20.84-8.83,3.64-12.37,9.18-13.57,18.27-2.61,19.78-.1,39.19,1.86,58.8,1.17,11.75,7.3,20.21,15.58,25.87,10.77,7.36,22.66,13.76,35.61,17.09,37.16,9.55,74.79,11.25,111.36-.67,42.37-13.82,46.65-26.28,44.47-61.22Z"/>
      <path class="cls-1" d="M515.61,358.52c-14.78-2.67-31.3.37-43.05-13.07-1.14-1.3-2.72-2.04-3.52-3.92-9.77-22.91-28.47-34.27-51.8-39.06-7.98-1.64-13.43-4.97-12.63-13.69.83-9.06,10.55-10.26,15.14-9.71,15.86,1.92,32.28.45,47.61,6.7,10.48,4.27,17.62,11.18,21.75,21.77,4.53,11.63,8.73,23.21,25.39,22.49,8.1-.35,17.35,13.42,15.99,21.18-1.54,8.78-8.25,7.93-14.86,7.3Z"/>
      <path class="cls-1" d="M492.93,412.51c.04,13.77-3.2,15.67-16.64,12.64-34.11-7.69-54.81-27.97-60.68-62.68-.74-4.37-3.71-5.82-6.68-8.12-5.8-4.5-11.75-9.17-11.72-17.78.04-8.33,5.27-13.94,13.13-11.72,17.02,4.79,32.05,13.05,37.51,31.5,4.52,15.29,12.87,26.59,27.12,34.3,8.49,4.6,19.64,8.34,17.96,21.86Z"/>
      <path class="cls-1" d="M210.34,150.82c.91,23.79-16.68,52.6-45.58,46.91-12.3-2.42-23.88-7.34-31.77-18.63-3.83-5.48-4.32-10.1-.56-14.99,4.11-5.34,9.14-9.93,16.7-8.46,17.32,3.35,19.94,2.37,29.53-12.13,1.83-2.77,3.39-5.79,5.55-8.28,3.43-3.95,5.44-10.22,12.72-8.66,6.67,1.43,9.89,6.47,11.82,12.17,1.28,3.77,1.11,8.02,1.6,12.06Z"/>
      <path class="cls-1" d="M343.77,170.3c-.49,2.45-.38,4.87-1.41,6.6-10.76,18.1-46.64,22.3-61.37,7.25-4.11-4.2-9.88-6-13.5-11.25-8.99-13.04-6.46-27.04-4.5-40.94.89-6.34,10.98-7.79,15.78-2.13,15.45,18.18,34.08,29.87,58.57,30.84,6.31.25,4.95,6.26,6.44,9.64Z"/>
      <path class="cls-1" d="M242.13,312.84c-21.01-2.41-40.32,5.08-60.33,5.97-7.8.35-15.63,1.18-23.4.77-3.34-.18-8.97.78-9.15-5.51-.14-4.98.61-9.54,5.61-12.43,12.76-7.37,26.75-11.02,41.06-13.39,33.53-5.55,66.68-4.17,99.33,6.06,3.99,1.25,7.88,2.44,10.92,5.09,3.02,2.64,8.99,3.4,5.59,10.6-2.94,6.23-5.96,10.08-13.1,8.2-18.78-4.94-37.82-6.98-56.53-5.36Z"/>
      <path class="cls-1" d="M188.49,339.04c31.27,2.51,62.64,2.44,93.96,3.57,9.54.35,18.81,3.98,28.65.58,1.38-.48,7.64-2.03,8.65,3.98.87,5.17,2.74,9.67-3.52,13.41-8.01,4.79-17.01,5.18-25.56,6.75-39.11,7.18-77.74,2.29-116.07-6.32-2.85-.64-5.88-1.59-8.21-3.25-3.8-2.71-11.39-1.8-10.29-9.49,1.16-8.13,8.27-7.61,13.8-8.06,6.14-.51,12.25-3.93,18.58-1.17Z"/>
    </g>
  </g>
</svg>