<?xml version="1.0" encoding="UTF-8"?>
<svg id="Layer_2" data-name="Layer 2" xmlns="http://www.w3.org/2000/svg" viewBox="0 0 406.36 708.65">
  <defs>
    <style>
      .cls-1 {
        fill: #d49188;
      }

      .cls-1, .cls-2 {
        stroke-width: 0px;
      }

      .cls-2 {
        fill: #fff;
      }
    </style>
  </defs>
  <g id="Layer_1-2" data-name="Layer 1">
    <g>
      <path class="cls-1" d="M356.06,528.97c-2.12,4.1-10.32,10.42-15.48,11.85,1.23,1.76,3.01,3.12-.56,4.87-2.51,1.24-5.57,3.31-5.11,7.4.08.68-2.1,1.41-2.68,2.44-.7,1.24-1.38,2.98-1.03,4.21.65,2.28-2.55,9.67-5.82,11.84,2.26,6.98.47,13.39-2.86,19.77-.81,1.55.35,4.13.6,6.18-1.31.08-2.94.17-3.25.19-.64,4.06-.58,7.67-1.84,10.74-1.8,4.37-4.58,8.34-6.93,12.48-1.44,2.53-10.6,6.73-13.82,6.42-.77-.08-1.61.16-2.37.41-4.64,1.53-9.27,3.1-14.06,4.72-1.26-1.72-2.44-3.33-3.62-4.94-.21.09-.43.18-.64.26.58,1.46,1.17,2.92,2,4.99-6.35.64-12.25,1.24-18.47,1.87v-3.83c-.25-.05-.49-.11-.74-.16-.29,1.41-.59,2.83-1.02,4.94-4.48-.55-10.12.4-12.96-1.98-4.33-3.64-8.73.55-12.6-1.95-.49-.31-2.83,1.89-4.07,3.18-2.25,2.34-2.17,2.42-3.79-.51-4.11,6.57-8.31-1.68-12.61.28.21.78.56,1.57.55,2.35,0,.2-1.63.65-1.7.53-2.19-3.99-4.16-2.17-6.25.1-.48.52-1.42.63-2.58,1.1-.19-1.97-.34-3.53-.52-5.44-1.87.31-3.48.57-5.74.95,1.6.82,2.7,1.38,3.99,2.03-2.43.57-4.7,1.1-7.27,1.7.38-1.36.71-2.57,1.05-3.78-.3-.28-.59-.56-.89-.84-1.82,1.55-3.63,3.11-6.36,5.44-.83.19-.16-6.08-3.66-2.43-1.53-1.78-3.07-3.57-4.69-5.46-.15.26-.75,1.29-1.35,2.31-2.44-2.5-1.97-2.01-4.68.63-1.52,1.48-4.91,1.21-7.48,1.37-1.18.07-2.73-.41-3.56-1.21-2.26-2.19-5.96.02-7.86-2.83-3.37,2.55-6.44-1.01-9.83-.45-3.46.57-6.87-.02-8.29-4.22-.98,2.69-1.63,4.94-5.53,2.91-2.39-1.24-5.74-.65-9.4-.94-.23-.74-.7-2.26-1.26-4.09-.44,1.09-.78,1.93-1.42,3.49-6.17-3.52-12.2-6.96-18.21-10.39,1.09-1.61,1.73-2.56,2.52-3.74-.61-.25-.98-.46-1.38-.56-2.15-.53-4.56-.63-6.34-1.75-.78-.49-.29-3.03-.37-4.63.52-.17,1.04-.35,1.55-.52-1.33-.73-2.67-1.45-3.4-1.85-.77-2.03-1.55-3.77-2.08-5.58-1.28-4.36-2.47-8.75-3.65-13.14-.22-.8-.23-1.65-.39-2.47-.71-3.74-1.44-7.49-2.14-11.1.41-.33-.21.17-.23.18-1.88-4.87-3.99-9.85-5.69-14.98-.74-2.24-.17-6.63-1.01-6.84-3.92-.98-3.85-4.62-5.73-6.85-1.57-1.87-3.58-3.4-4.96-5.38-2-2.87-3.61-6.02-5.81-9.79,0,1.38.2,2.2-.05,2.83-.32.78-1.02,1.41-1.56,2.11-.35-.62-.59-1.36-1.08-1.83-2.29-2.22-4.65-4.36-7.49-7.02,0,0,.98-1.12,1.97-2.24-.14-.21-.28-.42-.42-.63-1.14.92-2.26,1.86-3.44,2.73-.36.26-.88.3-1.32.45-.82-5.11-8.28.76-9.12-5.76-.31-2.44-4.72-4.32-7.19-6.53-.72-.64-1.76-1.59-1.71-2.33.33-4.55-3.17-6.26-5.93-8.57-.21-.18-.03-.76-.15-1.12-1.17-3.57-2.36-7.14-3.67-11.11.03,0,1.22-.4,2.5-.81-.3-.14-.68-.44-1.08-.48-5.71-.7-6.46-5.73-8.07-9.68-1.94-4.75-3.36-9.74-4.66-14.72-.64-2.47-.49-5.14-.59-6.31-1.88-3.06-3.25-5.31-4.57-7.46,1.97-.93,3-1.42,4.04-1.91-.56-1.03,1.76-3.1-1.79-3.35-1.51-.1-4.56-2.71-2.65-6.72,1.45-3.04.82-7.06,1.12-10.65.16-1.91.32-3.83.56-6.69.14.1-.76-.54-2.13-1.5,1.32-.47,2.28-.82,2.67-.96,0-6.82.49-13.51-.12-20.1-.76-8.14,8.88-9.47,9.99-17.9-2.65,2.83-4.43,4.73-6.97,7.43,1.35-7.47,2.48-13.75,3.61-20,.31.27.83.73,1.51,1.32.2-.57.57-1.06.47-1.44-.68-2.81-.92-5.77-3.49-7.85-.92-.75-1.4-2.2-1.8-3.42-1.5-4.57-3.29-9.11-4.15-13.81-.46-2.5.76-5.31,1.27-8.19h-2.06c-.69-1.88-1.29-3.48-1.88-5.09.23.07.46.14.69.2-.51-9.59-1.02-19.18-1.54-28.97,1.06-.29,2.16-.59,3.8-1.04-1.25-.92-2.1-1.54-3.13-2.3,2.96-1.55,3.44-3.04-.09-4.77,1.17-.11,2.34-.22,3.85-.37-.27-1.44-.54-2.85-.9-4.76,1.27-.06,2.37-.11,4.45-.2-.74-3.02-1.45-5.9-2.38-9.67.83-.54,2.66-1.71,3.63-2.33.58-3.58,1.08-6.62,1.59-9.79,1.05.49,1.99.93,2.97,1.39.17-.55.41-.98.32-1.06-2.5-2.37-3.85-3.6.22-6.8,3.03-2.38,3.51-8,5.1-12.18.17-.44-.05-1.3.17-1.39,8.65-3.77,3.59-13.1,7.63-18.71,1.98-2.75,4.14-5.39,5.96-8.24.42-.66-.33-1.99-.27-2.99.06-1.16.16-2.45.7-3.44,1.82-3.35,3.84-6.59,5.94-10.13-1.01-.43-1.86-.8-1.59-.68-.95-7.57-1.82-14.49-2.63-20.95-1.98-3.11-4.96-5.97-5.72-9.33-2.06-9.1-6.79-16.29-13.34-22.59-.19-.18.45-1.23.73-1.9-1.29-.91-3.04-2.15-5.75-4.06,5.26-1.28,7.5-3.74,5.8-8.28,5.98.58,11.37,1.29,10.32,9.94.47-.39.94-.77,1.41-1.16-.21-1.25-.42-2.5-.7-4.12,1.01,0,2.36-.38,2.76.07,1.05,1.19,1.68,2.74,2.6,4.37.33-.44,1.23-1.62,2.05-2.7,3.39,1.57,6.54,3.02,9.68,4.49,2.52,1.18,5.02,2.4,7.35,4.05,2.09-1,3.75-1.05,4.74,2.27.31,1.03,1.97,1.65,3.67,2.96,0,.02-.07,1.24-.18,3.06,6.5-4.03,5.47,3.22,7.83,5.08,2.95,2.32,3.97,7.09,5.79,10.74,3.97-1.47,3.46,3.56,5.39,5.2,1.82,1.54,2.65,4.26,3.87,6.48,2.46,4.49,6.46,8.49,4.64,14.37-.07.24-.08.65.06.79,5.09,4.91,3.94,12.7,7.85,17.8,3.06,3.99,3.29,10.2,10.45,11.67,5.88,1.2,5.6,2.57,15.08,3.04.96.05,1.88.81,4.05,1.81-1.1-2.06-1.56-2.93-2.14-4,3.36-2.12,6.72-4.24,10.48-6.6.75-2.28-.65-6.82,3.64-6.17,1.47-6.85,2.84-13.21,4.41-20.53.17.26-1.31-1.17-1.05-1.68,1.97-3.77,1.13-7.43.37-11.26-.49-2.49-.03-5.15-.27-7.71-.82-8.64-1.61-17.29-2.74-25.89-.63-4.77-2.37-9.42-2.78-14.2-.49-5.58,1.19-11.3-2.1-16.68-.6-.99,1.25-3.48,2-5.36-.47-.23-1.14-.57-1.9-.94,2.97-1.23,4.16-8.77,2.05-13.46,1.07.23,1.93.41,3.33.71-2.07-3.89-1.85-6.96,2.41-8.8-1.58-3.06-1.57-3.04,2.48-5.45.4-.24.95-.95.84-1.2-1.42-3.51,2.74-6.31,2.01-8.53-1.02-3.15.19-3.69,2.02-5.24,2.04-1.73,5.54-2.89,4.15-6.98-.23-.69,1.27-1.97,2.27-3.41,1.06,1.52,1.79,2.57,2.44,3.5.89-.96,1.8-1.95,2.74-2.97-1.94-.78-3.83-1.54-5.72-2.29-.13-.54-.25-1.09-.38-1.63,3.18-1.59,6.35-3.19,9.53-4.78.14.37.28.74.42,1.11.64-1.25,1.34-2.47,1.92-3.75.5-1.1.87-2.26,1.34-3.51.53.45,1.59,1.34,3.44,2.9-.58-2.31-.96-3.82-1.37-5.48,2.58-3.8,5.62-8.08,8.44-12.5,1.22-1.91,1.8-3.76,4.92-2.49,1.12.46,4.5-1.27,4.66-2.32.91-6.3,7.04-6.83,10.69-9.67,4.42-3.45,9.48-6.01,13.49-10.24,2.34-2.47,5.86-3.83,10.17-6.51-.14,3.16-.23,5.28-.35,8.06-1.07-1.17-1.68-1.83-2.63-2.86-.66,4.02,1.7,8.78-3.52,10.75.42.96.84,1.92,1.32,3.01-1.39-.21-2.54-.38-3.98-.6,1.06,1.7,1.9,3.04,2.82,4.51-1.44.67-2.58,1.2-4.3,2,1.31.83,2.19,1.38,3.07,1.94-7.23,9.81-3.43,22.67-7.75,33.2,1.29,4.56,2.74,9.38,3.99,14.25.53,2.08.27,4.41,1.02,6.38,1.53,4,3.27,7.96,5.35,11.7,1.84,3.32,4.25,6.33,6.58,9.72.15-.12-.59.49-1.46,1.23,2.21,1.16,4.85,1.77,6.12,3.43,1.18,1.54.89,4.19,2.24,5.66,1.73,2.74,3.02,5.95,5.29,8.12,4.44,4.24-4.56,6.29-1.86,9.52,2.26-1.23,5.21-3.71,6.07-3.12,2.45,1.67,4.04,4.58,5.97,7-.33.34-.65.68-.98,1.02.26-.7.53-1.41.79-2.11.39,0,.78.01,1.16.02v10.41c1.24,3.79,8.64-.84,9.06,5.99.25,4.14,1.66,8.21,2.61,12.61.32-.17,1.24-.66.98-.52,1.03,2.38,1.7,5.02,3.18,7.08,2.81,3.91,1.79,7.06-.91,10.39-1.56,1.92-2.75,4.15-4.3,6.54,4.36,2.9,4.5,6.91,2.48,11.27-.07.15-1.32-.25-.8-.14-1.03,7.23-2.07,14.59-3.22,22.72.68-1.65,1.1-2.67,1.75-4.23,2.06,6.96,3.96,13.39,5.84,19.75,3.19,0,5.88-.13,8.55.03,5.29.32,9.76-.58,12.7-5.78,1.04-1.85,3.44-2.94,5.21-4.38.46-.37,1.31-.89,1.24-1.19-.99-4.55,2.82-5.72,4.38-6.72-.2-3.16-1.2-5.76-.31-7.2,5.39-8.76,3.38-18.21,3.16-27.51-.04-1.9-.52-3.79-.9-6.42-.1.02.63-.14.63-.14-.99-5.61-2-11.18-2.89-16.76-.07-.44.75-1.02,1.16-1.52,1.11-1.34,3.21-2.7,3.17-4-.14-4.69,3.14-8.44,2.67-13.46-.3-3.25,2.8-7.03,4.89-10.24,3.28-5.05,6.64-10.14,10.61-14.64,4.31-4.9,9.26-9.26,14.15-13.61,1.32-1.18,3.42-1.49,5-2.13.67,5.59,11.89,11.54,1.43,16.4-.35,7.02-.53,13.02-1.02,18.99-.21,2.56-1.51,5.08-1.46,7.6.02,1.2,2.04,2.36,3.11,3.49-.18,1.29-1.04,3.28-.58,4.88,2.4,8.27,5,16.5,7.88,24.62.68,1.92,2.45,3.68,4.14,4.98,2.94,2.27,3.91,5.49,4.89,8.73.14.47-.99,1.33-1.76,2.29,2.27,3.41,5.04,7.3,7.48,11.38,1.6,2.68,4.15,5.9,3.7,8.44-.61,3.51,2.31.67,2.55,2.29.44,2.91.92,6.07,2.4,8.51,1.71,2.81,1.02,7.14,5.1,8.5.23.08.49.48.5.73.03,3.77.02,7.54.02,11.44,2.67.41,4.29.99,4.09,5.36-.26,5.39,2.01,10.9,3.18,16.37.36,1.69.93,3.4.94,5.1,0,2.1-.48,4.2-.76,6.3.45.16.9.32,1.35.49-1,.47-1.99.95-2.99,1.42,3.04,12.6,2.11,16.44-4.51,19.33.76-.15,1.52-.37,2.29-.43,2.98-.22,4.95-.01,4.45,4.21-.37,3.12,1.33,6.48-1.28,9.34.52.32,1.04.63,2.09,1.27-1.53.32-2.54.53-2.56.54.72,3.16,1.38,6.08,2.08,9.16-.89-.34-1.57-.59-2.21-.83.67,3.76,1.12,7.34,1.99,10.83,1.13,4.55,2.85,8.96,3.83,13.53.94,4.36,1.26,8.86,1.84,13.17.44-.97,1.2-2.64,1.98-4.34,5.04,3.77,8.12,15.96,5.54,18.86,1.76,2.74,4.38,5.13,4.85,7.88,1.18,7.01,1.27,14.2,2.04,21.29.77,7.14,2.36,14.22,2.63,21.37.31,8.07-.46,16.18-.73,24.28-.02.72.26,1.45.33,2.19.16,1.66.71,3.44.28,4.94-.5,1.77-1.86,3.3-2.85,4.94.41.27.82.54,1.23.81-1.19.84-2.39,1.68-3.45,2.43.77.55,1.5,1.08,2.23,1.6-3.44,3.24-1.91,7.82-3.13,11.65-1.64,5.15-3.09,10.39-5.25,15.32-1.59,3.62-3.33,7.98-8.92,7.34,1.93-.11,3.85-.23,5.78-.34-1.46.63,1.07,5.69-3.22,2.92-.63,1.06-1.63,2.05-1.83,3.19-.66,3.72-2.28,6.28-6.34,6.79-.41.05-.57,1.47-1.05,1.64-.83.28-1.84.08-3.12.08-2.41,2.2-5.62,5.12-8.82,8.04-1.55.19-3.2.11-4.63.64-2.16.8-4.08,2.23-6.24,3.02-3.89,1.44-3.66,3.04-.5,5.06ZM254.7,277.89c-4.14,1.49-8.26,3.02-12.44,4.37-.3.1-1.03-1.12-1.56-1.72,2.91-1.62-.5-2.16-.69-3.25-.19-1.08-1.42-1.99-2.44-3.28-.85.42-2.44,1.2-4.04,1.99.77.67,1.53,1.32,2.01,1.73-5.88,5.46-12.64,1.74-18.84,2.81.16-1.52.29-2.74.38-3.59-2.43,1.42-4.34,3.21-6.51,3.61-1.77.33-3.94-.78-5.77-1.61-6.1-2.78-12.11-2.01-18.24-.14-3.04.93-6.24,1.35-9.37,1.99-1.07.22-2.14.48-3.22.6-2.46.26-4.97.82-7.38.56-2.43-.26-4.76-1.35-8.29-2.43,2.31,1.8,3.63,2.81,4.94,3.83-.11.37-.22.74-.32,1.11-2.67-.76-5.35-1.51-8.35-2.36-.39.79-1.06,2.13-1.33,2.68-4.52-.92-8.76-1.79-14.06-2.88,1.66,2.11,2.26,2.88,2.87,3.66-.79.22-1.57.49-2.37.67-6.17,1.39-12.34,2.76-18.51,4.13.12.49.24.97.36,1.46,1.59.14,3.18.29,4.88.44-.66,4.07-4.21,3.6-6.77,4.67-2.68,1.12-5.99-1.96-8.41,1.62-1.06,1.56-3.16,2.49-4.9,3.51-2.45,1.44-5.01,2.69-7.53,4.02-1.49,0-4.43-.71-4.99.15-1.17,1.79-1.1,4.4-1.56,6.85-.91.22-2.77.1-3.7.97-3.8,3.59-6.83,8.2-11.08,11.04-3.83,2.55-5.7,5.79-7.4,9.59-.6,1.34-1.56,2.53-2.45,3.71-.23.31-.8.37-1.21.54-.68-1.38-1.27-2.61-1.87-3.84,2.71,8-6.03,10.87-7.08,16.11-2.45.32-4.56.59-6.68.87-.11.43-.22.87-.33,1.3,1.89.78,3.78,1.55,4.58,1.88-.64,3.51-1.23,6.76-1.88,10.32-.62-.34-1.28-.7-1.93-1.06l2.27,2.28c-2.36,2.01-4.72,4.02-7.09,6.04-.5-.44-1.01-.88-1.51-1.32.46,1.35.92,2.7,1.45,4.24-.98-.31-1.61-.51-1.61-.5-.49,2.43-.97,4.85-1.45,7.26.21,2.01.65,4.41-.12,6.31-1.62,3.98-3.98,7.64-5.83,11.54-.62,1.3-.78,2.9-.83,4.38-.08,2.05.14,4.1.23,6.04-2.89.44-5.07.77-7.26,1.11.04.21.08.41.12.62,1.82.21,3.63.43,5.65.66-.67,2.94-.47,6.9-1.99,7.75-3.4,1.9-2.94,4.56-3.26,7.29l-.12-.14c-1.34,5.94,3.79,11.22,1.75,17.24.16.05.33.11,1.01.33.47-1,.97-2.05,1.49-3.16,3.01,7.56,1.5,11.56-4.46,11.49.39,1.99.78,3.93,1.16,5.88.46-.08.92-.15,1.37-.23-.17-1.47-.35-2.94-.53-4.5,6.58.66,7.05,1.8,4.77,6.81,1.12,4.99,1.89,8.41,2.66,11.83.21,0,.43-.01.64-.02.14-.75.28-1.5.31-1.65,2.4,2.52,4.84,5.09,7.28,7.66.44.46,1.24,1,1.2,1.43-.58,5.94,3.22,9.41,7.06,12.89.39.36,1.14.67,1.16,1.04.2,3.38,1.25,5.32,5.27,4.45,1-.22,2.81,1.25,3.49,2.39.44.75-.5,2.31-.87,3.7,3.39.22,7.74-1.49,7.95,4.18.91-.33,1.8-.74,2.74-.96,1.26-.3,2.56-.46,3.85-.68-.29,2.61,5.08,3.23,2.42,6.76-.06.08,1.12,1.42,1.3,1.33,3.25-1.67,3.88,1.81,5.77,2.76,1.29.65,2.92.6,4.4.9,1.52.3,3.9.14,4.41,1.04,2.5,4.38,4.49,9.04,6.38,13,.96.67,2.45,1.14,2.69,1.97,1.31,4.54,2.31,9.18,3.42,13.77-1.37.46-2.65.9-3.68,1.25,9.06,4.08,6.72,10.91,4.87,17.85.99-.14,1.56-.2,2.13-.3.51-.09,1.02-.22,1.71-.37.77,6.32,1.49,12.18,2.19,17.82,1.34,1.58,2.77,3.52,4.48,5.18,1.79,1.74,1.81,6.56,6.65,3.19v5.52c1.43-1.56,2.38-2.6,3.64-3.97,4.21,10.24,9.29,1.4,11.97,1.02,8.41-8.62,2.15-20.37,9.24-28.48,3.43,6.8,6.08-.73,9.17.37-.29,1.35-.63,2.92-.97,4.48l1.29-.77c1.46,2.08,3.89,4.04,4.18,6.27.53,4.11,1.94,8.88-2.07,11.71,1.17,2.88,2.28,5.62,3.63,8.95,2.82,1.21,6.53,1.37,10.43-.32,1.06-.46,2.78.52,4.17.95,3.55,1.09,7.07,2.24,10.97,3.48-1.4-1.93-2.49-3.44-4.13-5.7,1.97.62,2.86.9,3.48,1.09,0-5.9.35-11.65-.09-17.34-.54-6.96,6.22-7.69,9.14-11.63.38-.51,1-1.06,1.58-1.17,2.21-.4,9.35,7.61,8.96,10.18-.53,3.44-1.32,6.84-1.94,9.98,1,.47,2.66.91,2.64,1.28-.09,2.01,1.09,4.45.96,5.42-.59,4.43,1.37,7.89,3.08,12.53,2.32-3.83,3.67-8.76,9.1-7.96,4.23.62,8.43,1.5,12.86,2.31-.09-1.31-.38-3.7-.37-6.09.01-3.89.67-7.83.22-11.66-.39-3.31,2.8-14.68,5.53-16.67.41-.3.74-.73,1.18-.94,2.33-1.1,4.69-2.16,6.5-2.98,2.02,3.72,4.31,7.94,6.54,12.04-.77.51-1.65,1.09-1.54,1.02.57,2.58,1.15,4.19,1.23,5.83.12,2.53-.6,5.18-.07,7.59.93,4.24,2.52,8.34,4.22,13.7,1.96-2.59,2.72-3.6,3.46-4.58,1.56.62,2.93,1.17,3.86,1.54,1.97-1.57,3.58-2.85,5.19-4.13.16.2.33.4.49.6-.34.58-.69,1.16-1.03,1.74.29.22.57.45.86.67,1.07-1.38,2.13-2.76,3.2-4.14,2.04.29,4.08.59,6.27.9.03-4.98,3.15-6.27,7.62-6.79-1.58-.6-3.16-1.21-4.46-1.71,2.8-3.12,5.73-6.26,8.44-9.59.34-.42-.48-1.77-.72-2.7-.66-2.56-1.92-5.16-1.77-7.68.13-2.16,1.88-4.21,2.99-6.47.43,1.51.87,3.05,1.3,4.6.49-.15.99-.31,1.48-.46-.55-1.86-.69-3.98-1.72-5.51-2.83-4.22-2.27-8.15,1.17-10.36.52-3.9.69-7.25,1.53-10.42.3-1.11,2.65-1.53,3.37-2.7,2.04-3.32,3.11-7.43,5.68-10.19,6.39-6.87,14.45-10.7,23.93-10.72-.83-1.28-.55-1.75,1.67-3.6,4.41-3.69,9.11-7.12,12.98-11.32,3.72-4.03,9.44-6.34,11.33-11.84,1.59-4.65,3.7-6.25,8.53-2.92-1.9-2.46-5.72-4.36-.89-6.82-.12-.12-.36-.33-.34-.35,2-2.74,4.02-5.48,6.05-8.21.86-.72.82-2.11.7-3.49-.13-1.54-.81-3.2-.42-4.57,1.11-3.93,2.86-7.69,3.92-11.64.62-2.33.57-4.88.53-7.33-.07-5.34-.14-10.7-.55-16.03-.5-6.37-.23-13.13-2.41-18.93-1.93-5.14-2.69-9.8-1.97-15.02.14-1.02-.26-2.97-.77-3.1-3.99-1.03-3.02-4.57-3.96-7.14-.4-1.08-.9-2.27-1.71-3.03-2.97-2.77-3.66-5.38-.4-7.59-3.43-6.7-6.66-13.22-10.11-19.63-1.23-2.29-3.26-4.16-4.47-6.46-2.84-5.36-4.95-11.15-8.26-16.18-1.76-2.67-5.4-4.11-8.51-6.33,2.12-.41,4.3-.83,6.48-1.25,0-.16.02-.33.02-.49-2.66-.26-5.33-.52-7.09-.69-5.31-4.96-10.41-9.72-15.84-14.79-.42.1-1.62.39-1.37.33-1.33-1.79-1.95-3.56-2.87-3.72-4.69-.85-9.45-1.29-14.61-1.92.91-1.94,1.23-2.64,1.15-2.47-5.42-2.37-10.75-4.7-16.48-7.2v-3.85c-2.44.92-4.44,1.67-6.61,2.49-.26-1.17-.46-2.08-.62-2.83-1.86.46-3.59.89-5.49,1.36.48-1.58.85-2.77,1.37-4.46-4.63.53-9.09,2.15-12.07-2.37-1.12.7-2.24,1.4-3.08,1.93v-5.93c-1.09-.33-2.18-.67-3.26-1ZM308.31,254.85c9.79-3.26,8.27-10.83,7.42-18.44-3.36,4.39-6.58,8.6-9.87,12.9,1.12.42,1.99.75,3.65,1.38-1.84.47-2.88.73-3.79.97.87,1.07,1.77,2.19,2.58,3.19ZM179.4,209.42c3.68,7.24,6.79-1.77,10.09-.2-.74-1.64-1.59-3.52-2.31-5.11-.55.42.11-.09.63-.49-2.1-1.92-4.16-3.8-6.35-5.8-1.67,4.51-3.57,9.65-5.47,14.79.52.18,1.03.36,1.55.54.58-1.16,1.15-2.31,1.85-3.72ZM154.65,100.98c-2.5.15-4.09,0-5.55.37-6.29,1.64-2.52,7.76-4.69,11.49-1.17,2.02,1.36,6.19,2.33,9.79,2.09-4.01-.42-9.38,4.2-12.17.25-.15.16-1.32-.13-1.8-1.9-3.18-1.85-3.51.97-5.25.77-.47,1.4-1.16,2.87-2.42ZM21.18,356.58c-.49.19-.99.38-1.48.57-.57-6.16.04-12.89-6.74-15.57.12.44.2,1.42.63,2.22,2.07,3.82,5.27,7.16,3.84,12.26-.25.88,1.99,2.68,3.36,3.64.39.27,2.22-.69,2.66-1.49.84-1.52,1.15-3.33,1.79-5.38h-4.6c.19,1.33.37,2.54.54,3.75ZM156.28,210.06c-.96,2.33-2.05,4.35-2.58,6.51-.36,1.47.08,3.13.17,4.7,1.77-1.17,4.41-1.95,5.12-3.58,1.52-3.49,2.04-7.41,3.03-11.41-1.97,1.3-4,2.64-5.74,3.79ZM83.63,283.39c5.26-.5,8.8,5.23,13.63,2.5-2.47-2.52-4.78-4.88-7.1-7.24l-1.36-2.45c-.66,1.48-1.31,2.95-1.86,4.2-.54-1.15-1.21-2.58-2.03-4.31-1.4,1.2-2.43,2.09-3.83,3.28,2.59.38,6.61-.76,2.54,4.01ZM248.55,158.12c.41-.11.82-.21,1.23-.32-.77-3.39-1.54-6.79-2.27-10.01-1.35,1.92-2.42,3.44-3.49,4.96-1.42-2.04-2.84-4.07-3.99-5.74-.96,1.59-.67,7.24,1.78,8.46,1.42.71,3.73-.38,5.73-.67.19.62.6,1.97,1.01,3.32ZM325.09,209.06c-4.07,4.47,2.76,8.66-1.61,12.42.59.55,1.14,1.48,1.78,1.54.55.05,1.63-.8,1.73-1.38.38-2.12.44-4.3.63-6.45.2-2.28.4-4.56.61-6.93-.92.23-2.65.68-3.13.8ZM243.28,623.19c1.1,2.45,1.37,4.51,2.38,4.97,1.67.77,3.81.5,5.63.66-1.81-2.95-3.19-5.2-4.56-7.42-1.41,3.43-6.39-4.76-7.52,1.45,1.77.14,3.51.29,4.07.33ZM233.55,198.5c-.53-.02-1.07-.04-1.6-.07-.25,1.42-.5,2.84-.77,4.39-1.38-.74-2.39-1.28-3.6-1.93.71,3.84,1.32,7.17,2,10.84,1.64-.29,3.21-.56,4.79-.84l-.15-1.2c-.87.04-1.75.09-2.06.1.47-3.76.93-7.52,1.4-11.28ZM160.78,272.47c.85,2.39,1.09,4.69,2.35,5.96.78.79,3.99.62,4.58-.21.92-1.29.54-3.51.71-5.23.52.32,1.23.77,2.33,1.45-.12-1.03-.16-1.91-.23-1.91-2.92-.07-5.84-.06-9.74-.06ZM187.61,142.61c1.64,1.73,2.78,3.16,4.16,4.29.61.5,1.83.73,2.55.47.76-.27,1.62-1.2,1.79-1.97.39-1.83.39-3.75.5-5.1-2.4.62-5.4,1.39-9,2.32ZM106.41,262.01c-1.88,2.68-3.18,4.05-3.87,5.69-.44,1.05-.33,2.7.23,3.69.51.9,1.91,1.41,3.01,1.78.46.16,1.74-.53,1.72-.76-.25-3.3-.67-6.58-1.1-10.4ZM226.28,231.72c-1.77.84-2.76,1.3-4.65,2.19,2.1.11,3.06.16,3.46.18-.6,1.8-1.13,3.39-1.67,4.97,4.84-1.64,4.99-5.14,3.1-8.07-.88-1.37-4.17-1.19-6.36-1.71-.06.51-.12,1.02-.19,1.54,1.83.26,3.66.52,6.3.9ZM133.43,239.31c-.31-.35-.63-.71-.94-1.06-1.95,1.14-3.98,2.15-5.8,3.47-.94.68-1.51,1.89-2.24,2.86,1.4.1,3.28.82,4.1.18,1.9-1.46,3.29-3.59,4.88-5.45ZM158.69,187.64c-.41.33-.83.65-1.24.98,1.94,2.69,3.88,5.38,5.91,8.2.98-1.22,2.01-2.51,3.53-4.41-2.26-.62-4.14-1.13-5.6-1.53-.84-1.05-1.72-2.15-2.6-3.25ZM325.6,202.77c.85-.96,1.32-1.5,1.79-2.04l-1.27-.99c-1.37,1.84-2.74,3.67-4.2,5.63,3.98.92,7.47,1.91,7.4-3.2-1.13.18-2.2.36-3.72.6ZM145.44,195.87c-1,3.39-1.82,6.2-2.77,9.41,5.63-.62,5.81-1.4,2.77-9.41ZM229.67,142.96l.83,1.09c.97-.25,1.92-.57,2.9-.75,1.74-.32,3.14-2.57,2.65-5.47-2.35,1.89-4.37,3.51-6.38,5.13ZM199.52,147.98c-.64-.17-1.28-.35-1.92-.52-.87,2.68-5.56,4.4-.85,9.1,1.03-3.19,1.9-5.88,2.77-8.58ZM327.14,293.06c-2.28,3-3.99,5.25-5.7,7.5.3.3.6.6.9.89,1-.85,2.01-1.69,2.99-2.52.76.69,1.62,1.46,2.93,2.64-.42-3.2-.73-5.57-1.11-8.51ZM146.79,153.41c-.17.32-.35.64-.52.96,1.39.52,2.79,1.05,4.18,1.57.15-.34.3-.68.45-1.01-1.53-2.05-3.06-4.1-4.19-5.62-1.23,1.19-2.81,2.71-4.38,4.24,0,.33-.02.66-.03.99,1.5-.37,2.99-.75,4.49-1.12Z"/>
      <path class="cls-1" d="M180.81,707.1c-1.78-1.15-3.87-2.5-5-3.23-2.15,1.16-3.33,1.8-4.51,2.44.3-.58.6-1.16.7-1.36-1.55-.46-3.23-.95-4.91-1.44-2.35-.46-5.64,3.56-6.91-2.57-.05-.24-3.03.14-6.04.3,2.38.93,3.54,1.38,4.7,1.83,0,.27,0,.54,0,.81-3.11.15-6.22.31-10.29.51-2.03-.6-.98-7.42-7.08-4.31,1.35.34,2.17.55,2.99.76.01.34.03.68.04,1.02h-11c.01-.41.03-.82.04-1.23,1.18.14,2.37.27,3.55.41-3.39-5.13-3.38-5.1-8.92-2.46-.5.24-1.42-.27-2.09-.55-4.23-1.75-9.5-.31-13.07-4.31-.31-.35-1.85.4-3.64.84,1.96,1.02,2.97,1.54,4.71,2.44-10.29-.13-20.2-5.13-22.23-10.96,7.31-2,14.61-3.99,22.24-6.07.06.15.47,1.19.9,2.27,1.74-2.41,9.21.19,12.79,5.07-.41-2.31-.94-3.56-.72-4.66.17-.86,1.29-1.53,2.92-3.31-.25,2.45-.35,3.46-.44,4.39,3.38,2.26,6.61-7.39,10.22,1.07.73-1.88,1.2-3.08,1.79-4.58.39,1.38.71,2.51,1.04,3.64.3-.01.6-.03.9-.04.18-.94.37-1.88.66-3.37,3.37,1.03,6.92,2.1,10.86,3.3-.38,1.07-.96,2.73-1.55,4.39l.93.46c.75-1.46,1.49-2.91,2.47-4.82,1.66,1.19,3.34,2.4,5.72,4.12.66-1.81,1.25-3.44,1.98-5.47,7.26-2.65,7.55-2.58,7.12,2.25,1.68.18,3.38.37,5.49.6.14-1.8.28-3.57.44-5.76,2.51,2.41,4.78,4.59,7.2,6.91,1.01-1.79,2.04-3.62,3.06-5.42,2.02-.12,4.16,5.32,5.67-.27.07-.26,2.42-.3,3.44.16,1.83.81,3.46,2.07,4.87,2.95,2.27-6.15,6.53-4.64,10.42-3.15.98.37,1.33,2.4,1.48,2.71,4.72-1.73,9.18-4.01,13.9-4.89,3.5-.66,7.34.48,11.03.82.05.47.11.93.16,1.4-.86.8-1.73,1.6-2.65,2.45.34.49.6,1.24.88,1.25,3.41.12,6.77.97,9.08-3.23,1.32-2.41,4.47-3.24,7.29-.94,3.13-3.87,7.22-4.18,12.76-2.21,2.16.77,5.11-.71,7.99-1.22-.42,2.84-.77,5.22-1.11,7.59.34.1.69.19,1.03.29.51-2.11,1.02-4.22,1.54-6.36,4.52-.49,9.05-.99,13.59-1.48l-.53,1.69c.87,1.47,1.74,2.94,2.61,4.41.32-.14.63-.27.95-.41-.34-1.1-.67-2.19-1.28-4.17,4.11.89,7.63,1.65,11.96,2.59,1.13,3.36,3.56,6.34,8.86,4.19-.03,2.02-5.99,2.7-.94,5.47-11.75,3.33-23.25,6.58-35.42,10.02.78-1.27,1.22-1.98,2.4-3.89-3.91,1.75-6.76,3.03-10.69,4.78-8-2.85-16.75-1.84-24.36,5.73-.25-3.31-.2-2.87-2.9-1.95-3.34,1.15-6.98,1.76-10.52,1.92-7.11.32-14.25.1-21.37.26-1.42.03-2.82,1.1-4.23,1.1-2.29,0-5.44.34-6.69-.95-2.24-2.32-3.99-2.25-6.64-1.4-1.29.42-2.99-.63-4.45-.49-1.8.17-3.55.89-5.18,1.33Z"/>
      <path class="cls-1" d="M356.06,528.97c-3.16-2.02-3.39-3.62.5-5.06,2.16-.8,4.08-2.22,6.24-3.02,1.43-.53,3.08-.45,4.63-.64,3.23,3.14,3.14,3.61-1.15,5.16-3.4,1.22-6.82,2.38-10.22,3.57Z"/>
      <path class="cls-2" d="M29.94,428.23c.32-2.73-.14-5.39,3.26-7.29,1.53-.85,1.32-4.8,1.99-7.75-2.01-.24-3.83-.45-5.65-.66-.04-.21-.08-.41-.12-.62,2.18-.33,4.37-.67,7.26-1.11-.09-1.94-.31-4-.23-6.04.06-1.48.22-3.08.83-4.38,1.85-3.89,4.21-7.56,5.83-11.54.78-1.9.33-4.3.12-6.31.48-2.41.96-4.82,1.45-7.26,0,0,.63.2,1.61.5-.53-1.54-.99-2.89-1.45-4.24.5.44,1.01.88,1.51,1.32,2.36-2.01,4.72-4.02,7.09-6.04l-2.27-2.28c.66.36,1.32.72,1.93,1.06.65-3.56,1.24-6.81,1.88-10.32-.79-.33-2.68-1.1-4.58-1.88.11-.43.22-.87.33-1.3,2.12-.27,4.23-.55,6.68-.87,1.05-5.24,9.79-8.11,7.08-16.11.6,1.23,1.2,2.46,1.87,3.84.41-.17.98-.23,1.21-.54.89-1.19,1.85-2.38,2.45-3.71,1.7-3.81,3.57-7.04,7.4-9.59,4.25-2.83,7.28-7.45,11.08-11.04.93-.87,2.79-.76,3.7-.97.47-2.44.39-5.06,1.56-6.85.56-.85,3.5-.15,4.99-.15,2.52-1.33,5.08-2.59,7.53-4.02,1.74-1.02,3.84-1.95,4.9-3.51,2.42-3.58,5.73-.5,8.41-1.62,2.57-1.07,6.11-.61,6.77-4.67-1.7-.15-3.29-.3-4.88-.44-.12-.49-.24-.97-.36-1.46,6.17-1.38,12.34-2.75,18.51-4.13.8-.18,1.58-.44,2.37-.67-.61-.77-1.22-1.55-2.87-3.66,5.31,1.09,9.54,1.95,14.06,2.88.27-.55.94-1.9,1.33-2.68,3,.85,5.67,1.61,8.35,2.36.11-.37.22-.74.32-1.11-1.31-1.02-2.63-2.04-4.94-3.83,3.53,1.08,5.87,2.18,8.29,2.43,2.41.26,4.92-.3,7.38-.56,1.08-.12,2.15-.38,3.22-.6,3.13-.64,6.33-1.06,9.37-1.99,6.13-1.87,12.15-2.63,18.24.14,1.83.83,4,1.94,5.77,1.61,2.17-.41,4.08-2.19,6.51-3.61-.09.86-.22,2.07-.38,3.59,6.2-1.07,12.95,2.65,18.84-2.81-.48-.41-1.23-1.06-2.01-1.73,1.6-.79,3.19-1.57,4.04-1.99,1.02,1.29,2.25,2.19,2.44,3.28.19,1.09,3.59,1.63.69,3.25.53.6,1.26,1.82,1.56,1.72,4.18-1.35,8.31-2.88,12.44-4.37,1.45,5.08-4.52,2.47-5.66,5.43,4.72,1.52,7.41-.24,8.93-4.43v5.93c.84-.53,1.96-1.23,3.08-1.93,2.98,4.52,7.44,2.9,12.07,2.37-.52,1.69-.88,2.88-1.37,4.46,1.89-.47,3.63-.9,5.49-1.36.17.75.36,1.66.62,2.83,2.17-.82,4.17-1.57,6.61-2.49v3.85c5.73,2.5,11.05,4.83,16.48,7.2.08-.16-.25.53-1.15,2.47,5.16.63,9.92,1.07,14.61,1.92.92.17,1.54,1.93,2.87,3.72-.26.06.95-.23,1.37-.33,5.43,5.07,10.53,9.84,15.84,14.79,1.76.17,4.43.43,7.09.69,0,.16-.02.33-.02.49-2.18.42-4.36.84-6.48,1.25,3.11,2.22,6.75,3.66,8.51,6.33,3.31,5.02,5.42,10.82,8.26,16.18,1.22,2.3,3.24,4.17,4.47,6.46,3.45,6.4,6.68,12.92,10.11,19.63-3.27,2.21-2.58,4.82.4,7.59.81.76,1.31,1.95,1.71,3.03.95,2.57-.02,6.11,3.96,7.14.51.13.91,2.08.77,3.1-.73,5.22.04,9.87,1.97,15.02,2.17,5.8,1.91,12.56,2.41,18.93.42,5.32.48,10.68.55,16.03.03,2.45.09,5-.53,7.33-1.06,3.95-2.81,7.7-3.92,11.64-.39,1.37.29,3.04.42,4.57.12,1.38.16,2.78-.7,3.49-2.02,2.73-4.04,5.46-6.05,8.21-.02.02.22.23.34.35-4.83,2.46-1.01,4.36.89,6.82-4.83-3.33-6.94-1.73-8.53,2.92-1.88,5.49-7.6,7.81-11.33,11.84-3.87,4.19-8.58,7.63-12.98,11.32-2.21,1.85-2.5,2.32-1.67,3.6-9.48.02-17.54,3.85-23.93,10.72-2.57,2.76-3.63,6.88-5.68,10.19-.72,1.17-3.07,1.59-3.37,2.7-.84,3.17-1.01,6.52-1.53,10.42-3.44,2.21-4,6.14-1.17,10.36,1.03,1.53,1.17,3.66,1.72,5.51-.49.15-.99.31-1.48.46-.44-1.54-.88-3.08-1.3-4.6-1.11,2.26-2.86,4.32-2.99,6.47-.15,2.52,1.11,5.12,1.77,7.68.24.93,1.07,2.28.72,2.7-2.71,3.32-5.65,6.47-8.44,9.59,1.3.5,2.88,1.1,4.46,1.71-4.47.53-7.59,1.82-7.62,6.79-2.19-.32-4.23-.61-6.28-.9-1.07,1.38-2.13,2.76-3.2,4.14-.29-.22-.57-.45-.86-.67.34-.58.69-1.16,1.03-1.74-.16-.2-.33-.4-.49-.6-1.61,1.28-3.22,2.56-5.19,4.13-.93-.37-2.3-.92-3.86-1.54-.74.98-1.5,1.99-3.46,4.58-1.7-5.36-3.29-9.45-4.22-13.7-.53-2.41.19-5.06.07-7.59-.08-1.64-.66-3.25-1.23-5.83-.11.07.77-.51,1.54-1.02-2.23-4.1-4.52-8.32-6.54-12.04-1.81.82-4.17,1.88-6.5,2.98-.44.21-.77.64-1.18.94-2.73,1.99-5.92,13.36-5.53,16.67.45,3.82-.21,7.77-.22,11.66,0,2.39.29,4.78.37,6.09-4.43-.81-8.63-1.69-12.86-2.31-5.44-.8-6.78,4.13-9.1,7.96-1.71-4.64-3.67-8.1-3.08-12.53.13-.97-1.05-3.41-.96-5.42.02-.37-1.64-.82-2.64-1.28.62-3.14,1.42-6.54,1.94-9.98.39-2.58-6.74-10.59-8.96-10.18-.59.11-1.2.66-1.58,1.17-2.93,3.95-9.68,4.68-9.14,11.63.44,5.69.09,11.43.09,17.34-.62-.19-1.51-.47-3.48-1.09,1.64,2.26,2.73,3.77,4.13,5.7-3.89-1.24-7.42-2.39-10.97-3.48-1.39-.43-3.11-1.41-4.17-.95-3.89,1.69-7.61,1.53-10.43.32-1.35-3.33-2.47-6.08-3.63-8.95,4.01-2.83,2.61-7.6,2.07-11.71-.29-2.23-2.72-4.19-4.18-6.27l-1.29.77c.34-1.56.68-3.12.97-4.48-3.08-1.11-5.74,6.43-9.17-.37-7.09,8.11-.83,19.86-9.24,28.48-2.67.38-7.75,9.22-11.97-1.02-1.26,1.37-2.21,2.41-3.64,3.97v-5.52c-4.84,3.37-4.86-1.45-6.65-3.19-1.71-1.66-3.13-3.6-4.48-5.18-.69-5.64-1.41-11.5-2.19-17.82-.69.15-1.19.28-1.71.37-.57.1-1.14.16-2.13.3,1.84-6.94,4.18-13.76-4.87-17.85,1.03-.35,2.31-.78,3.68-1.25-1.11-4.59-2.11-9.23-3.42-13.77-.24-.83-1.74-1.3-2.69-1.97-1.88-3.96-3.88-8.62-6.38-13-.51-.89-2.89-.74-4.41-1.04-1.48-.29-3.11-.24-4.4-.9-1.89-.96-2.51-4.43-5.77-2.76-.17.09-1.36-1.24-1.3-1.33,2.66-3.53-2.71-4.15-2.42-6.76-1.28.22-2.58.37-3.85.68-.94.22-1.83.64-2.74.96-.22-5.67-4.57-3.97-7.95-4.18.37-1.39,1.31-2.95.87-3.7-.67-1.14-2.49-2.6-3.49-2.39-4.03.87-5.08-1.06-5.27-4.45-.02-.37-.77-.68-1.16-1.04-3.84-3.47-7.65-6.95-7.06-12.89.04-.43-.76-.97-1.2-1.43-2.44-2.57-4.88-5.14-7.28-7.66-.03.15-.17.9-.31,1.65-.21,0-.43.01-.64.02-.77-3.42-1.54-6.84-2.66-11.83,2.28-5.01,1.81-6.15-4.77-6.81.18,1.56.36,3.03.53,4.5-.46.08-.92.15-1.37.23-.39-1.95-.77-3.9-1.16-5.88,5.95.07,7.47-3.93,4.46-11.49-.52,1.11-1.02,2.16-1.49,3.16-.69-.22-.85-.28-1.01-.33,2.04-6.01-3.09-11.3-1.73-17.22.66,1.91,1.31,3.8,1.96,5.7.44.06.87.12,1.31.18.47-3.43.93-6.86,1.4-10.29-.48-.07-.97-.13-1.45-.2-1.04,1.58-2.07,3.15-3.11,4.73ZM240.75,455.18c-.7,2.45-2.31,5.02-1.76,6.98.54,1.95,1.71,5.19,5.82,3.83,2.08-.69,3.93,1.06,2.09,3.79-.06.09.33.48.7,1,.59-.46,1.14-.9,2.78-2.2-1.38,2.22-2.04,3.29-3.32,5.36,3.02-.5,5.19-.86,7.92-1.31-1.41,1.07-2.29,1.74-3.76,2.85,5.01,1.13,8.32,5.35,13.44,3.72,4.13,5.44,9.58,3.48,15.02,3.1,3.41-.24,7-.34,10.25-.24,3.69.11,5.53.16,5.92-2.12,1.92-.15,3.94.18,4.26-.41,2.99-5.49,9.33-6.28,13.69-9.89,4.5-3.74,8.39-7.23,9.6-14.66-1.29,1.77-1.92,2.34-2.14,3.03-.25.79-.14,1.7-.21,2.95-2.98-2.89-1.82-5.37.59-6.19,1.68-3.28,2.54-5.28,3.67-7.11,1.88-3.05,2.22-5.66-.27-6.88v-11.48c-1.82-1.23-3.25-3.01-3.3-4.82-.11-4.58-4.22-8.65-9.44-8.52.14-2.99.34-6.09-4.33-5.1-.61.13-1.45-.78-2.18-1.22-6.66-4.04-14.12-2.97-21.28-2.9-4.89.05-9.11,4.91-14.62,2.66-.38-.15-.99.16-1.46.35-4.11,1.71-8.32,3.23-12.29,5.24-3.42,1.74-6.96,3.61-9.73,6.19-3.91,3.64-7.82,7.61-10.44,12.17-1.47,2.56-1.53,8.93-.21,9.59,5.78,2.91,2.34,4.58-.07,6.64,1.95,2.17,3.83,4.26,5.04,5.61ZM118.67,484.27c.24.21.49.43.73.64,1.33.07,2.85.58,3.96.13,3.01-1.23,5.34-4.95,9.31-2.14.19.13.95-.3,1.27-.64,1.58-1.66,3.11-3.37,4.5-4.9.99.83,1.79,1.5,2.61,2.2.25-2.11.47-3.96.7-5.81.43.04.86.08,1.29.12v4.06c2.5-1.86,4.57-3.4,7.29-5.43-.54,2-.9,3.32-1.26,4.63,3.18-3.1.52-9.77,6.85-10.86.25.95.51,1.95.71,2.75,5.11-3.9,3.75-6.76-1.35-9.35,2.37-.29,4.73-.57,7.44-.9-3.71-2.55-3.87-4.83.1-6.89.78,1.14,1.48,2.17,2.74,4.02,1.54-4.89,4.54-9.34,3.68-12.85-1.43-5.84-5.15-11.18-8.25-16.52-2.42-4.17-6.21-6.87-10.49-9.26-3.46-1.93-6.15-5.24-9.18-7.93-.16.72-.32,1.43-.48,2.15-3.25.62-6.5,1.24-9.75,1.85-.09-.3-.19-.6-.28-.89,1.64-1.33,3.28-2.66,5.18-4.2-2.02-.56-3.96-1.43-5.95-1.55-2.2-.13-4.44.44-6.66.71.12.54.25,1.09.37,1.63,1.9-.63,3.79-1.26,5.69-1.89.14.67.27,1.34.41,2.01-3.3.36-6.6.72-9.78,1.06.54-1.26,1.04-2.44,1.77-4.14-2.95.96-4.84,2.11-6.7,2.05-2.77-.08-5.53-1.57-8.25-1.47-5.55.2-10.13,2.95-14.46,6.73,1.69,1.03,2.94,1.78,4.18,2.54-.16.29-.33.58-.49.87-2.04-.93-4.07-1.85-6.47-2.94-.82.75-1.9,1.74-2.8,2.55.81,1.54,1.45,2.77,2.27,4.34-1.79-.73-3.03-1.25-3.91-1.6.58,2.18,1.12,4.19,1.67,6.21-.31.1-.62.2-.94.29-.34-1.13-.67-2.26-.91-3.07-2.04,1.42-3.79,2.64-5.74,3.99q5.67,2.59,5.24,3.98c-1.85-.57-3.69-1.14-5.92-1.83-1.64,10.05-4,19.93,1.78,29.5,1.47-.29,3.07-.6,3.76-.73,0,2.92-1.07,6.48.26,8.2,1.84,2.39,4.32,6.03,9.07,3.25,1.62-.95,4.65.53,7.04.9l-.15,1.15c-3.06.3-6.13.59-9.19.89-.03.45-.06.9-.09,1.35,4.73,1.33,9.46,2.65,13.83,3.87,2.33.38,4.2.76,6.08.96,1.88.2,3.77.22,5.66.32.06.53.13,1.07.19,1.6-1.23,1.1-2.45,2.2-4.8,4.31h6.61ZM204.72,468.73c-4.02,2.87-4.44,9.17-10.06,7.13-2.44,3.51-5.17,6.91-7.31,10.66-3.88,6.83-7.42,13.81-11.58,20.53-3.16,5.09-3.18,12.2-4.16,18.47-.15.95,2.02,3.19,3.2,3.26,3.58.2,7.47-1.33,10.75-.41,4.06,1.14,3.91-3.38,6.17-3.42,5.01-.1,5.6-2.46,3.08-7.62,4.11,2.79,6.94,3.49,8.66-.72.06-.14,2.13.55,3.88,1.01-.02.03.49-.91,1.01-1.85-2.01,9.04,8.05,8.07,9.81,12.55,2.37-.7,4.27-1.01,5.9-1.83,1.37-.69,2.68-1.81,3.58-3.06,2.73-3.78,3.9-7.54,1.87-12.48-1.75-4.26,1.21-9.74-3.28-13.79-1.61-1.45-2.02-4.22-3.13-6.74-1.08.47-2.37,1.03-3.56,1.55-.92-1.38-1.77-2.66-2.76-4.15,1.76.41,3.23.76,5.01,1.18-1.67-4.2-2.75-7.77-4.52-10.94-.64-1.15-1.47-4.56-4.41-2.2-.37-.59-.73-1.19-1.1-1.77-.54-.83-1.07-2.35-1.63-2.36-1.95-.04-3.92.44-5.99.74.12-.74.25-1.62.58-3.72Z"/>
      <path class="cls-2" d="M308.31,254.85c-.81-1-1.71-2.12-2.58-3.19.9-.23,1.95-.5,3.79-.97-1.66-.63-2.53-.96-3.65-1.38,3.29-4.3,6.51-8.51,9.87-12.9.85,7.61,2.37,15.17-7.42,18.44Z"/>
      <path class="cls-2" d="M179.4,209.42c-.7,1.41-1.28,2.57-1.85,3.72-.52-.18-1.03-.36-1.55-.54,1.9-5.14,3.8-10.28,5.47-14.79,2.2,2.01,4.25,3.88,6.35,5.8-.52.4-1.18.91-.63.49.72,1.59,1.57,3.47,2.31,5.11-3.3-1.57-6.41,7.44-10.09.2Z"/>
      <path class="cls-2" d="M154.65,100.98c-1.47,1.26-2.1,1.95-2.87,2.42-2.82,1.74-2.87,2.08-.97,5.25.29.48.37,1.65.13,1.8-4.62,2.79-2.11,8.17-4.2,12.17-.97-3.6-3.5-7.77-2.33-9.79,2.17-3.73-1.59-9.86,4.69-11.49,1.45-.38,3.05-.22,5.55-.37Z"/>
      <path class="cls-2" d="M21.18,356.58c-.17-1.21-.35-2.42-.54-3.75h4.6c-.64,2.05-.95,3.86-1.79,5.38-.44.8-2.27,1.76-2.66,1.49-1.38-.96-3.61-2.76-3.36-3.64,1.43-5.1-1.76-8.44-3.84-12.26-.43-.79-.51-1.77-.63-2.22,6.78,2.69,6.17,9.42,6.74,15.57.49-.19.99-.38,1.48-.57Z"/>
      <path class="cls-2" d="M156.28,210.06c1.74-1.15,3.78-2.49,5.74-3.79-.99,4-1.51,7.92-3.03,11.41-.71,1.63-3.35,2.41-5.12,3.58-.08-1.57-.52-3.23-.17-4.7.53-2.16,1.62-4.18,2.58-6.51Z"/>
      <path class="cls-2" d="M83.63,283.39c4.06-4.77.05-3.63-2.54-4.01,1.39-1.2,2.43-2.09,3.83-3.28.82,1.73,1.49,3.16,2.03,4.31.55-1.24,1.21-2.72,1.86-4.2l1.36,2.45c2.31,2.36,4.62,4.72,7.1,7.24-4.83,2.73-8.37-3-13.63-2.5Z"/>
      <path class="cls-2" d="M248.55,158.12c-.41-1.35-.82-2.7-1.01-3.32-1.99.29-4.31,1.38-5.73.67-2.46-1.22-2.74-6.87-1.78-8.46,1.16,1.66,2.58,3.7,3.99,5.74,1.07-1.52,2.14-3.04,3.49-4.96.73,3.22,1.5,6.62,2.27,10.01-.41.11-.82.21-1.23.32Z"/>
      <path class="cls-2" d="M325.09,209.06c.48-.12,2.22-.57,3.13-.8-.21,2.37-.41,4.65-.61,6.93-.19,2.16-.25,4.33-.63,6.45-.1.58-1.18,1.43-1.73,1.38-.64-.06-1.19-.99-1.78-1.54,4.37-3.77-2.47-7.95,1.61-12.42Z"/>
      <path class="cls-2" d="M243.28,623.19c-.56-.05-2.3-.19-4.07-.33,1.13-6.21,6.11,1.98,7.52-1.45,1.36,2.22,2.75,4.47,4.56,7.42-1.83-.16-3.97.1-5.63-.66-1.01-.46-1.28-2.52-2.38-4.97Z"/>
      <path class="cls-2" d="M233.55,198.5c-.47,3.76-.93,7.52-1.4,11.28.31-.02,1.19-.06,2.06-.1l.15,1.2c-1.57.28-3.15.55-4.79.84-.68-3.67-1.29-7-2-10.84,1.21.65,2.22,1.19,3.6,1.93.27-1.55.52-2.97.77-4.39.53.02,1.07.04,1.6.07Z"/>
      <path class="cls-2" d="M160.78,272.47c3.91,0,6.83,0,9.74.06.07,0,.11.88.23,1.91-1.1-.68-1.82-1.13-2.33-1.45-.16,1.72.21,3.94-.71,5.23-.59.83-3.8.99-4.58.21-1.26-1.27-1.5-3.57-2.35-5.96Z"/>
      <path class="cls-2" d="M187.61,142.61c3.6-.93,6.6-1.7,9-2.32-.11,1.35-.11,3.27-.5,5.1-.16.78-1.03,1.7-1.79,1.97-.73.26-1.95.03-2.55-.47-1.38-1.13-2.52-2.56-4.16-4.29Z"/>
      <path class="cls-2" d="M106.41,262.01c.44,3.82.85,7.11,1.1,10.4.02.23-1.26.92-1.72.76-1.11-.37-2.51-.89-3.01-1.78-.56-.99-.67-2.64-.23-3.69.68-1.64,1.99-3.01,3.87-5.69Z"/>
      <path class="cls-2" d="M226.28,231.72c-2.64-.38-4.47-.64-6.3-.9.06-.51.12-1.02.19-1.54,2.2.52,5.48.34,6.36,1.71,1.89,2.93,1.74,6.42-3.1,8.07.53-1.58,1.06-3.17,1.67-4.97-.4-.02-1.37-.07-3.46-.18,1.89-.89,2.87-1.36,4.65-2.19Z"/>
      <path class="cls-2" d="M133.43,239.31c-1.6,1.86-2.98,3.98-4.88,5.45-.83.64-2.7-.08-4.1-.18.74-.97,1.3-2.18,2.24-2.86,1.82-1.31,3.85-2.33,5.8-3.47.31.35.63.71.94,1.06Z"/>
      <path class="cls-2" d="M158.69,187.64c.88,1.1,1.76,2.2,2.6,3.25,1.47.4,3.34.91,5.6,1.53-1.52,1.9-2.55,3.19-3.53,4.41-2.03-2.82-3.97-5.51-5.91-8.2.41-.33.83-.65,1.24-.98Z"/>
      <path class="cls-2" d="M325.6,202.77c1.51-.25,2.59-.42,3.72-.6.08,5.11-3.42,4.12-7.4,3.2,1.46-1.95,2.83-3.79,4.2-5.63l1.27.99c-.47.54-.95,1.08-1.79,2.04Z"/>
      <path class="cls-2" d="M145.44,195.87c3.04,8.01,2.86,8.79-2.77,9.41.94-3.21,1.77-6.02,2.77-9.41Z"/>
      <path class="cls-2" d="M229.67,142.96c2.02-1.62,4.03-3.24,6.38-5.13.48,2.9-.91,5.14-2.65,5.47-.98.18-1.94.5-2.9.75l-.83-1.09Z"/>
      <path class="cls-1" d="M257.96,278.89c-1.52,4.19-4.21,5.95-8.93,4.43,1.15-2.96,7.12-.35,5.66-5.43l3.26,1Z"/>
      <path class="cls-2" d="M199.52,147.98c-.87,2.69-1.74,5.39-2.77,8.58-4.7-4.71-.02-6.42.85-9.1.64.17,1.28.35,1.92.52Z"/>
      <path class="cls-2" d="M327.14,293.06c.38,2.93.69,5.31,1.11,8.51-1.31-1.18-2.17-1.95-2.93-2.64-.98.83-1.99,1.68-2.99,2.52-.3-.3-.6-.6-.9-.89,1.71-2.25,3.42-4.5,5.7-7.5Z"/>
      <path class="cls-2" d="M146.79,153.41c-1.5.37-2.99.75-4.49,1.12,0-.33.02-.66.03-.99,1.58-1.52,3.15-3.05,4.38-4.24,1.13,1.52,2.66,3.57,4.19,5.62-.15.34-.3.68-.45,1.01-1.39-.52-2.79-1.05-4.18-1.57.17-.32.35-.64.52-.96Z"/>
      <path class="cls-1" d="M240.75,455.18c-1.21-1.34-3.09-3.43-5.04-5.61,2.41-2.05,5.85-3.73.07-6.64-1.32-.66-1.26-7.03.21-9.59,2.62-4.57,6.53-8.53,10.44-12.17,2.77-2.58,6.31-4.45,9.73-6.19,3.96-2.01,8.17-3.53,12.29-5.24.46-.19,1.08-.51,1.46-.35,5.5,2.25,9.73-2.61,14.62-2.66,7.16-.07,14.62-1.14,21.28,2.9.73.44,1.57,1.35,2.18,1.22,4.67-.99,4.47,2.11,4.33,5.1,5.22-.13,9.33,3.94,9.44,8.52.04,1.81,1.48,3.59,3.3,4.82v11.48c2.49,1.23,2.15,3.84.27,6.88-1.13,1.83-1.99,3.83-3.67,7.11-2.41.83-3.57,3.31-.59,6.19.07-1.25-.04-2.16.21-2.95.22-.69.85-1.25,2.14-3.03-1.21,7.43-5.1,10.92-9.6,14.66-4.36,3.62-10.7,4.4-13.69,9.89-.32.59-2.33.26-4.26.41-.39,2.28-2.23,2.23-5.92,2.12-3.25-.1-6.85,0-10.25.24-5.44.38-10.89,2.34-15.02-3.1-5.12,1.63-8.42-2.6-13.44-3.72,1.47-1.11,2.35-1.78,3.76-2.85-2.73.45-4.9.81-7.92,1.31,1.28-2.06,1.94-3.13,3.32-5.36-1.64,1.3-2.19,1.74-2.78,2.2-.37-.52-.76-.91-.7-1,1.84-2.73,0-4.48-2.09-3.79-4.11,1.36-5.27-1.89-5.82-3.83-.55-1.96,1.05-4.53,1.76-6.98ZM270.15,413.86c-.08.63-.15,1.26-.23,1.89,4.14,3.05,8.36,2.78,12.12.15-.32-1.29-.63-2.52-1.11-4.48-1.29,1.12-2.32,2.01-4.01,3.48-1.34-.2-4.05-.62-6.77-1.03Z"/>
      <path class="cls-1" d="M118.67,484.27h-6.61c2.35-2.11,3.58-3.21,4.8-4.31-.06-.53-.13-1.07-.19-1.6-1.89-.1-3.79-.12-5.66-.32-1.89-.2-3.75-.58-6.08-.96-4.37-1.22-9.1-2.55-13.83-3.87.03-.45.06-.9.09-1.35,3.06-.3,6.13-.59,9.19-.89l.15-1.15c-2.39-.37-5.43-1.85-7.04-.9-4.74,2.78-7.23-.85-9.07-3.25-1.32-1.72-.26-5.28-.26-8.2-.69.13-2.29.45-3.76.73-5.77-9.57-3.42-19.46-1.78-29.5,2.23.69,4.08,1.26,5.92,1.83q.43-1.39-5.24-3.98c1.95-1.36,3.7-2.57,5.74-3.99.24.81.58,1.94.91,3.07.31-.1.62-.2.94-.29-.54-2.01-1.08-4.03-1.67-6.21.88.36,2.12.87,3.91,1.6-.82-1.57-1.47-2.8-2.27-4.34.89-.82,1.98-1.8,2.8-2.55,2.4,1.09,4.43,2.02,6.47,2.94.16-.29.33-.58.49-.87-1.24-.76-2.49-1.51-4.18-2.54,4.33-3.78,8.91-6.53,14.46-6.73,2.73-.1,5.49,1.39,8.25,1.47,1.85.06,3.74-1.09,6.7-2.05-.73,1.71-1.23,2.88-1.77,4.14,3.17-.35,6.48-.7,9.78-1.06-.14-.67-.27-1.34-.41-2.01-1.9.63-3.79,1.26-5.69,1.89-.12-.54-.25-1.09-.37-1.63,2.22-.27,4.46-.83,6.66-.71,1.99.12,3.93.99,5.95,1.55-1.9,1.54-3.54,2.87-5.18,4.2.09.3.19.6.28.89,3.25-.62,6.5-1.24,9.75-1.85.16-.72.32-1.43.48-2.15,3.03,2.7,5.72,6.01,9.18,7.93,4.28,2.38,8.07,5.09,10.49,9.26,3.1,5.35,6.83,10.69,8.25,16.52.86,3.51-2.14,7.97-3.68,12.85-1.26-1.85-1.96-2.88-2.74-4.02-3.97,2.06-3.81,4.34-.1,6.89-2.71.33-5.07.61-7.44.9,5.1,2.6,6.46,5.45,1.35,9.35-.21-.79-.47-1.79-.71-2.75-6.32,1.09-3.67,7.76-6.85,10.86.36-1.31.71-2.63,1.26-4.63-2.72,2.03-4.79,3.57-7.29,5.43v-4.06c-.43-.04-.86-.08-1.29-.12-.22,1.85-.44,3.7-.7,5.81-.82-.69-1.62-1.36-2.61-2.2-1.4,1.53-2.92,3.25-4.5,4.9-.32.34-1.08.77-1.27.64-3.97-2.81-6.3.91-9.31,2.14-1.12.46-2.63-.06-3.96-.13-.24-.21-.49-.43-.73-.64Z"/>
      <path class="cls-1" d="M204.72,468.73c-.33,2.1-.47,2.98-.58,3.72,2.07-.3,4.04-.78,5.99-.74.56.01,1.09,1.53,1.63,2.36.38.59.74,1.18,1.1,1.77,2.94-2.36,3.77,1.04,4.41,2.2,1.77,3.18,2.85,6.74,4.52,10.94-1.78-.42-3.25-.77-5.01-1.18.99,1.49,1.84,2.76,2.76,4.15,1.19-.52,2.47-1.08,3.56-1.55,1.11,2.52,1.53,5.3,3.13,6.74,4.5,4.05,1.53,9.54,3.28,13.79,2.03,4.94.86,8.7-1.87,12.48-.9,1.25-2.21,2.37-3.58,3.06-1.63.82-3.52,1.13-5.9,1.83-1.76-4.47-11.82-3.51-9.81-12.55-.51.94-1.02,1.88-1.01,1.85-1.74-.46-3.82-1.15-3.88-1.01-1.72,4.21-4.55,3.51-8.66.72,2.52,5.16,1.93,7.53-3.08,7.62-2.26.04-2.11,4.56-6.17,3.42-3.28-.92-7.17.61-10.75.41-1.18-.07-3.35-2.3-3.2-3.26.98-6.28,1.01-13.38,4.16-18.47,4.16-6.71,7.7-13.7,11.58-20.53,2.13-3.75,4.87-7.14,7.31-10.66,5.61,2.04,6.04-4.25,10.06-7.13Z"/>
      <path class="cls-1" d="M29.94,428.23c1.04-1.58,2.07-3.15,3.11-4.73.48.07.97.13,1.45.2-.47,3.43-.93,6.86-1.4,10.29-.44-.06-.87-.12-1.31-.18-.65-1.9-1.3-3.79-1.96-5.7-.01-.01.11.13.11.13Z"/>
      <path class="cls-2" d="M270.15,413.86c2.71.41,5.43.82,6.77,1.03,1.69-1.46,2.72-2.36,4.01-3.48.49,1.96.79,3.19,1.11,4.48-3.77,2.63-7.98,2.9-12.12-.15.08-.63.15-1.26.23-1.89Z"/>
    </g>
  </g>
</svg>