<?xml version="1.0" encoding="UTF-8"?>
<svg id="Layer_2" data-name="Layer 2" xmlns="http://www.w3.org/2000/svg" viewBox="0 0 627.09 555.82">
  <defs>
    <style>
      .cls-1 {
        fill: #fbe3a2;
      }

      .cls-1, .cls-2 {
        stroke-width: 0px;
      }

      .cls-2 {
        fill: #fefefe;
      }
    </style>
  </defs>
  <g id="Layer_1-2" data-name="Layer 1">
    <g>
      <path class="cls-1" d="M188.87,554.53c-12.7-2.59-26.47.78-37.39-8.49-.62-.53-2.15-1.02-2.48-.71-16.21,15.43-35.37,1.72-53.23,4.79-23.6,4.05-48.28-1.19-71.92-8.06-23.49-6.82-30.05-34.66-17.81-51.6,14.54-20.13,24.98-43.05,38.64-63.61,12.22-18.38,19.31-39.15,31.91-57.21,12.49-17.91,22.48-37.55,33.68-56.37,29.75-49.99,60.66-99.34,88.94-150.15,16.21-29.13,29.8-59.92,47.72-88.01,14.16-22.19,28.19-44.62,43.78-65.87,9-12.27,27.2-12.23,38.16-.45,6.74,7.25,13.18,14.43,21.6,19.86,10.21,6.58,13.48,18.63,19.88,28.07,19.77,29.15,37.81,59.46,56.68,89.22,21.34,33.67,39.9,68.93,59.8,103.43,23.15,40.13,47.69,79.5,69.74,120.22,23.51,43.42,44.58,88.16,67.21,132.06,6.59,12.79,2.56,21.26-5.01,32.63-9.43,14.16-21.46,14.51-35.09,15.01-4.44.16-8.62,1.35-12.85,3.44-5.32,2.63-11.51,5.66-17.06-.72-3.23-3.7-7.61-1.64-11.5-1.18-20,2.35-39.73,2.49-59.99.13-20.22-2.36-41.18-.9-61.55,1.29-15.67,1.68-31.64,2.27-46.7.71-24.61-2.55-49.21,5.61-73.84-2.39-8.96-2.91-19.02,6.39-29.85,3.48-11.84-3.17-24.41-.92-36.45-4.63-8.24-2.53-17.23-.45-25.3,2.33-6.65,2.3-13.31,1.91-19.7,2.76ZM67.2,495.58c.73-.8,2.2-2.15,2.08-2.31-1.54-2.05-2.63-.54-3.69.69-.29,1.03-1.08,2.74-.77,2.98,1.36,1.02,1.95-.21,2.37-1.36ZM436.51,509.23c23.26-6.39,46.48-2.76,69.46-4.15,13.44-.82,27.34-5.74,40.47-1.57,10.72,3.4,16.47-.96,24-6.94,3.18-2.53,5.24-2.66,1.85-5.44-10.3-8.46-12.28-21.74-17.26-32.58-14.18-30.92-34.33-58.25-49.5-88.55-12.96-25.88-26.95-51.41-42.05-76.3-20.74-34.19-40.88-68.74-62.41-102.46-17.33-27.14-33.63-55-52.3-81.17-8.33-11.67-12.43-25.82-23.18-35.94-6.44-6.06-11.86-6.09-16.77.59-14.51,19.74-29.64,39.13-42.68,59.82-15.77,25-29.28,51.41-44.43,76.81-24.67,41.34-51.46,81.5-74.46,123.73-25.64,47.1-51.08,94.39-72.64,143.7-6.13,14.02.21,17.07,9.39,21.41,1.94.92,4.47.51,6.59,1.16,26.67,8.25,54.26.41,81.1,4.72,13.33,2.14,27.07-1.51,39.84,1.72,12.11,3.07,23.98,3.92,36.14,3.59,27.7-.75,55.54-3.91,83.05-2.07,35.6,2.38,70.85-5.9,105.79-.06ZM298.48,44.06c1.64-5.54,2.94-9.9,4.23-14.25-4.92,3.39-13.81,5.41-4.23,14.25Z"/>
      <path class="cls-2" d="M436.51,509.23c-34.95-5.85-70.2,2.44-105.79.06-27.51-1.84-55.35,1.32-83.05,2.07-12.17.33-24.03-.53-36.14-3.59-12.77-3.23-26.51.42-39.84-1.72-26.84-4.31-54.44,3.54-81.1-4.72-2.12-.66-4.65-.24-6.59-1.16-9.19-4.34-15.52-7.39-9.39-21.41,21.55-49.3,46.99-96.6,72.64-143.7,23-42.24,49.79-82.39,74.46-123.73,15.16-25.4,28.67-51.81,44.43-76.81,13.05-20.69,28.17-40.08,42.68-59.82,4.91-6.68,10.33-6.65,16.77-.59,10.75,10.12,14.85,24.27,23.18,35.94,18.68,26.17,34.98,54.03,52.3,81.17,21.53,33.72,41.67,68.27,62.41,102.46,15.1,24.89,29.09,50.42,42.05,76.3,15.17,30.3,35.32,57.64,49.5,88.55,4.97,10.84,6.96,24.13,17.26,32.58,3.39,2.78,1.34,2.91-1.85,5.44-7.53,5.98-13.28,10.34-24,6.94-13.13-4.17-27.03.76-40.47,1.57-22.98,1.39-46.2-2.24-69.46,4.15ZM441.94,373.21c-.58-8.52.2-24.08-6.4-37.42-14.45-29.18-34.01-54.8-59.4-75.64-4.16-3.41-7.05-7.11-8.49-13.07-4.74-19.73-9.94-39.15-23.86-55.5-8.78-10.32-28.73-19.2-44.8-9.18-13.33,8.31-19.21,22.01-30.71,30.94-37.77,29.37-59.99,68.47-72.63,114.01-11.02,39.71-7.83,75.59,17.76,110.27,21.79,29.53,50.41,42.58,84.6,47.96,25.3,3.99,48.4-4.82,71.9-12.02,41.63-12.76,71-50.76,72.03-100.37Z"/>
      <path class="cls-2" d="M298.48,44.06c-9.58-8.85-.69-10.87,4.23-14.25-1.29,4.36-2.58,8.71-4.23,14.25Z"/>
      <path class="cls-2" d="M65.58,493.95c1.08-1.22,2.16-2.74,3.71-.68.12.16-1.35,1.51-2.08,2.31-.53-.56-1.07-1.1-1.62-1.63Z"/>
      <path class="cls-2" d="M67.2,495.58c-.42,1.16-1.01,2.38-2.37,1.36-.31-.23.48-1.95.76-2.98.55.52,1.09,1.06,1.62,1.62Z"/>
      <path class="cls-1" d="M441.94,373.21c-1.02,49.61-30.39,87.61-72.03,100.37-23.5,7.2-46.6,16.01-71.9,12.02-34.19-5.39-62.81-18.43-84.6-47.96-25.59-34.68-28.78-70.56-17.76-110.27,12.64-45.55,34.86-84.65,72.63-114.01,11.49-8.94,17.38-22.63,30.71-30.94,16.08-10.02,36.02-1.13,44.8,9.18,13.92,16.35,19.11,35.77,23.86,55.5,1.43,5.96,4.33,9.65,8.49,13.07,25.39,20.83,44.96,46.46,59.4,75.64,6.6,13.34,5.82,28.9,6.4,37.42ZM223.92,367.14c.29,8.15,0,16.04,3.35,23.93,10.06,23.77,26.18,39.37,50.74,49.74,33.25,14.05,76.39,11.24,101.98-13.74,8.59-8.39,18.13-17.01,22.6-29.33,9.65-26.55,2.95-48.54-16.95-67.62-4.35-4.17-7.45-11.73-14.67-6.88-6.83,4.58-3.57,11.45-1.38,17.93,3.28,9.68,8.63,19.05,6.7,29.89-3.76,21.09-16.37,36.75-35,44.81-20.39,8.82-42.34,6.89-60.9-6.44-26.94-19.35-32.23-57.57-20.72-86.24,12.03-29.97,31.36-53.29,60.59-68.22,11.35-5.79,13.33-20.87,5.54-31.67-5.8-8.04-12.86-6.9-24.98,3.79-19.39,17.09-35.02,37.02-49.12,58.76-16.28,25.09-27.08,51.27-27.77,81.28ZM351.92,308.47c2.6-.14,5.57-.8,8.77.54,3.5,1.47,4.96-.97,4.62-4.2-.73-6.8-23.8-20.46-30.23-17.59-26.98,12.06-40.69,33.88-45.35,62.32-2.39,14.63,6.09,29.07,20.69,36.14,14.09,6.82,20.97-3.86,28.53-11.56,8.36-8.52,6.91-15.09-4.22-21.05-7.27-3.89-12.2-8.55-13.02-17.22-1.62-17.2,9.94-28.03,30.2-27.38Z"/>
      <path class="cls-2" d="M223.92,367.14c.7-30,11.49-56.18,27.77-81.28,14.1-21.74,29.74-41.68,49.12-58.76,12.13-10.69,19.18-11.83,24.98-3.79,7.79,10.79,5.82,25.87-5.54,31.67-29.24,14.93-48.56,38.25-60.59,68.22-11.51,28.67-6.22,66.89,20.72,86.24,18.56,13.33,40.51,15.26,60.9,6.44,18.63-8.06,31.24-23.72,35-44.81,1.93-10.85-3.41-20.21-6.7-29.89-2.2-6.47-5.46-13.34,1.38-17.93,7.22-4.85,10.33,2.72,14.67,6.88,19.9,19.08,26.6,41.07,16.95,67.62-4.48,12.32-14.01,20.94-22.6,29.33-25.59,24.98-68.73,27.79-101.98,13.74-24.56-10.38-40.68-25.97-50.74-49.74-3.34-7.89-3.05-15.78-3.35-23.93Z"/>
      <path class="cls-2" d="M351.92,308.47c-20.26-.65-31.82,10.18-30.2,27.38.81,8.67,5.75,13.33,13.02,17.22,11.13,5.96,12.58,12.53,4.22,21.05-7.55,7.7-14.44,18.38-28.53,11.56-14.6-7.06-23.08-21.51-20.69-36.14,4.65-28.43,18.36-50.26,45.35-62.32,6.43-2.87,29.5,10.79,30.23,17.59.35,3.23-1.12,5.68-4.62,4.2-3.2-1.34-6.17-.69-8.77-.54Z"/>
    </g>
  </g>
</svg>